<svg width="20" height="20" viewBox="0 0 32 32" xmlns="http://www.w3.org/2000/svg"><g id="Layer_2" fill="rgb(0,0,0)" data-name="Layer 2"><path d="m17.575 28h-10.934a2.593 2.593 0 0 1 -2.533-2.643v-18.714a2.593 2.593 0 0 1 2.533-2.643h10.934a2.593 2.593 0 0 1 2.533 2.643 1 1 0 1 1 -2 0 .6.6 0 0 0 -.533-.643h-10.934a.6.6 0 0 0 -.533.643v18.714a.6.6 0 0 0 .533.643h10.934a.6.6 0 0 0 .533-.643 1 1 0 0 1 2 0 2.593 2.593 0 0 1 -2.533 2.643z"></path><path d="m27.5 14.888-3.61-4.513a1 1 0 1 0 -1.562 1.25l2.699 3.375h-14.919a1 1 0 0 0 0 2h14.919l-2.7 3.375a1 1 0 0 0 1.562 1.25l3.611-4.512a1.77 1.77 0 0 0 0-2.225z"></path></g></svg>