<?xml version="1.0" encoding="UTF-8"?>
<svg version="1.1" xmlns="http://www.w3.org/2000/svg" width="32" height="32" viewBox="0 0 1024 1024">
<path d="M0 0 C2.25616096 -0.00302996 4.51232089 -0.00692363 6.76847905 -0.01159257 C12.89476369 -0.02177296 19.02098916 -0.01971647 25.14727843 -0.01541197 C31.09958489 -0.01318255 37.05187857 -0.02038106 43.00417996 -0.02717223 C56.66283889 -0.04233009 70.32147913 -0.04412568 83.98014472 -0.0416492 C94.53848444 -0.0398088 105.09681812 -0.04159174 115.65515709 -0.04587364 C117.17792567 -0.04647607 118.70069426 -0.04707727 120.22346285 -0.04767724 C122.51883131 -0.04858461 124.81419977 -0.04949329 127.10956822 -0.0504096 C148.42435299 -0.05882722 169.7391355 -0.06318322 191.0539217 -0.05900288 C192.25668229 -0.05876831 192.25668229 -0.05876831 193.48374107 -0.05852901 C197.54675156 -0.05772336 201.60976203 -0.05687759 205.6727725 -0.05601571 C206.47953538 -0.05584462 207.28629825 -0.05567353 208.11750849 -0.05549726 C209.74897683 -0.0551506 211.38044518 -0.05480207 213.01191352 -0.05445167 C238.37206643 -0.04909987 263.73218452 -0.0570144 289.09233093 -0.07548523 C317.66093951 -0.09626912 346.22952654 -0.10691558 374.79814309 -0.10290974 C377.85319308 -0.10251447 380.90824308 -0.10215291 383.96329308 -0.10181236 C384.71538372 -0.10172163 385.46747437 -0.1016309 386.24235565 -0.10153742 C397.52519971 -0.10037842 408.80802179 -0.10696633 420.09086037 -0.11762428 C432.94793126 -0.12975776 445.8049542 -0.13114279 458.66202591 -0.11883412 C465.20614099 -0.11284707 471.75018191 -0.11171592 478.29429245 -0.12383652 C526.88552415 -0.20762733 578.03757487 -0.16434257 623.54521179 19.26069641 C624.33379578 19.59472473 625.12237976 19.92875305 625.93486023 20.27290344 C648.36826094 29.8594951 668.28223344 42.0725082 686.54521179 58.26069641 C687.4282196 59.03284485 688.31122742 59.80499329 689.22099304 60.60054016 C691.69386053 62.78881637 694.12665239 65.01262562 696.54521179 67.26069641 C697.33153992 67.98128235 698.11786804 68.70186829 698.92802429 69.44429016 C745.66416555 114.00141518 761.0971518 180.62913197 762.60941756 242.90470996 C762.88743981 258.36458453 762.82251722 273.83038695 762.80666113 289.29207551 C762.80256043 295.22023322 762.80795572 301.14838098 762.81295586 307.07653636 C762.82341306 319.92620639 762.82260452 332.77585636 762.81679804 345.62552823 C762.81174229 356.87070481 762.81046491 368.11587408 762.81284332 379.36105156 C762.81307248 380.48530464 762.81307248 380.48530464 762.81330626 381.6322699 C762.81392906 384.67567332 762.81456588 387.71907674 762.81522579 390.76248016 C762.82132665 419.23908387 762.81582406 447.7156749 762.805032 476.19227665 C762.79554172 501.42562063 762.79639285 526.65894441 762.80595398 551.89228821 C762.81669071 580.32242785 762.82089473 608.75255632 762.81472945 637.18269771 C762.81408813 640.21985082 762.81346245 643.25700392 762.81284332 646.29415703 C762.81268517 647.04183769 762.81252701 647.78951834 762.81236407 648.55985599 C762.81010052 659.79153024 762.81272823 671.02319634 762.81780243 682.25486946 C762.82355021 695.0402805 762.82202942 707.82566856 762.81124094 720.61107678 C762.80592645 727.12193941 762.80386572 733.63276977 762.81053925 740.14363289 C762.87643933 810.34931996 759.41905135 882.57161705 712.54521179 939.26069641 C712.08002136 939.82740051 711.61483093 940.39410461 711.13554382 940.97798157 C700.99145338 953.27087032 690.20177417 964.52101066 677.54521179 974.26069641 C677.00590027 974.68173645 676.46658875 975.10277649 675.91093445 975.53657532 C661.34328823 986.85594638 645.47262527 995.95867491 628.54521179 1003.26069641 C626.80111023 1004.02639954 626.80111023 1004.02639954 625.02177429 1004.80757141 C576.32965868 1025.29839664 522.03681854 1024.5763207 470.18797207 1024.52214575 C464.36333851 1024.5180417 458.53871786 1024.52344232 452.71408612 1024.52844048 C440.09017117 1024.53889259 427.46627666 1024.53809118 414.84235984 1024.53228265 C403.79406923 1024.5272249 392.74578604 1024.52595045 381.69749451 1024.52832794 C380.96082856 1024.52848071 380.22416262 1024.52863348 379.46517347 1024.52879088 C376.47380636 1024.52941369 373.48243927 1024.53005051 370.49107217 1024.53071041 C342.50593927 1024.53681013 314.52081928 1024.53131063 286.53568837 1024.52051662 C261.74523614 1024.51102745 236.95480447 1024.51187679 212.16435242 1024.5214386 C184.22603859 1024.53217888 156.28773615 1024.53637731 128.34942055 1024.53021407 C125.36392339 1024.52957277 122.37842624 1024.52894708 119.39292908 1024.52832794 C118.29050264 1024.52809071 118.29050264 1024.52809071 117.16580497 1024.52784869 C106.13225692 1024.5255865 95.09871718 1024.52821029 84.06517029 1024.53328705 C71.50272115 1024.53903894 58.94029538 1024.5375055 46.3778491 1024.52672556 C39.98216855 1024.52150978 33.58652944 1024.51934125 27.1908493 1024.52602386 C-54.43725713 1024.60414563 -132.85183039 1017.37966399 -194.45478821 958.26069641 C-195.27978821 957.47694641 -196.10478821 956.69319641 -196.95478821 955.88569641 C-202.6113255 950.38628515 -207.6122278 944.48342642 -212.45478821 938.26069641 C-212.87486145 937.72766907 -213.29493469 937.19464172 -213.72773743 936.64546204 C-253.1692257 886.27969059 -261.63820495 823.7681214 -261.58850098 761.59422302 C-261.59037302 759.35062684 -261.59267528 757.10703098 -261.5953663 754.86343563 C-261.6014422 748.74429966 -261.6013557 742.62517743 -261.60017192 736.50603914 C-261.59998795 730.56938366 -261.60449033 724.6327321 -261.60878481 718.69607856 C-261.61842024 705.06579997 -261.62126764 691.43552516 -261.62184187 677.80524357 C-261.62230273 667.27149204 -261.62436791 656.73774198 -261.6275425 646.20399094 C-261.62844015 643.1636314 -261.62932996 640.12327186 -261.63021737 637.08291233 C-261.63043842 636.32690385 -261.63065947 635.57089538 -261.63088722 634.79197756 C-261.63703551 613.54649981 -261.64098839 592.30102257 -261.64054394 571.0555439 C-261.64052836 570.25567946 -261.64051278 569.45581503 -261.64049673 568.63171227 C-261.64041363 564.57837074 -261.64031459 560.52502922 -261.64021202 556.47168769 C-261.64019208 555.66679121 -261.64017213 554.86189474 -261.64015158 554.03260746 C-261.64011114 552.40491184 -261.64006935 550.77721623 -261.64002619 549.14952061 C-261.63941389 523.84412554 -261.64691404 498.53874389 -261.66059875 473.23335266 C-261.6759955 444.75092324 -261.68456281 416.26850264 -261.68363553 387.7860688 C-261.68356091 384.74256571 -261.6835122 381.69906263 -261.68348122 378.65555954 C-261.68346956 377.90626738 -261.68345791 377.15697522 -261.6834459 376.38497723 C-261.68341527 364.3836262 -261.68977143 352.38228691 -261.69841348 340.38093936 C-261.70693534 328.2956081 -261.70784474 316.21029383 -261.70130416 304.12496121 C-261.69795811 297.59189544 -261.69791825 291.05886324 -261.70665741 284.5258007 C-261.80593851 205.2930166 -254.82606626 129.30429018 -197.45478821 69.26069641 C-196.62076477 68.38542297 -195.78674133 67.51014954 -194.92744446 66.60835266 C-189.13216879 60.66659293 -183.01070316 55.34556949 -176.45478821 50.26069641 C-175.92321106 49.84207336 -175.39163391 49.42345032 -174.84394836 48.99214172 C-124.94949461 9.91660145 -61.81280422 -0.120011 0 0 Z " fill="#0A0A16" transform="translate(261.4547882080078,-0.2606964111328125)"/>
<path d="M0 0 C1.12112938 -0.00855011 1.12112938 -0.00855011 2.26490784 -0.01727295 C3.84057226 -0.0266588 5.41625575 -0.03323116 6.99194336 -0.03710938 C9.34200707 -0.04672404 11.69115966 -0.07777034 14.04101562 -0.109375 C28.30988275 -0.21082576 41.91556082 1.64881352 55.44140625 6.390625 C56.31740479 6.69178223 57.19340332 6.99293945 58.09594727 7.30322266 C76.19626645 13.69272886 92.33182929 22.69790764 106.94140625 35.203125 C107.76125 35.90050781 108.58109375 36.59789062 109.42578125 37.31640625 C125.13127163 51.04651663 137.21467207 67.25888304 145.97216797 86.15185547 C147.88744323 90.20529193 149.92377816 94.19991081 151.94140625 98.203125 C170.65319802 93.44016253 170.65319802 93.44016253 189.25390625 88.265625 C197.97324869 85.73222066 206.73028867 83.3524255 215.50390625 81.015625 C216.75276611 80.68248291 218.00162598 80.34934082 219.28833008 80.00610352 C222.8373189 79.0638291 226.38889943 78.13203657 229.94140625 77.203125 C231.04621338 76.90889648 232.15102051 76.61466797 233.28930664 76.31152344 C249.78791255 72.01319236 266.78274732 74.18532193 281.94140625 82.203125 C300.41093461 93.60029953 309.82167574 108.84277799 315.98242188 129.0703125 C317.16182726 132.9231969 318.37096271 136.76634639 319.58203125 140.609375 C321.02504158 145.18877045 322.4671991 149.768365 323.89575195 154.35229492 C326.39320315 162.35787617 328.96153373 170.33295817 331.63061523 178.28344727 C334.20108478 185.94837583 336.69063888 193.6402445 339.19140625 201.328125 C339.6175975 202.63737946 339.6175975 202.63737946 340.05239868 203.9730835 C344.03644249 216.22072661 347.91839164 228.49337284 351.69604492 240.80639648 C354.73258685 250.65202715 357.99194744 260.41596203 361.27978516 270.17944336 C364.32901498 279.26961139 367.1894918 288.40489005 369.97070312 297.58007812 C372.35230177 305.39574693 374.89402927 313.14842987 377.50390625 320.890625 C380.25111688 329.04455525 382.90732009 337.21134697 385.37890625 345.453125 C390.8846666 363.79132158 396.90740796 381.96835447 402.8421936 400.17112732 C408.91341837 418.79307949 414.9723846 437.4190433 420.99356174 456.05724525 C422.02501681 459.25001929 423.05784368 462.44232964 424.09298706 465.63391113 C428.49075072 479.1969491 432.80105821 492.76537811 436.65037537 506.49601746 C438.09674034 511.59497876 439.809884 516.33990179 441.94140625 521.203125 C442.87270177 523.90088596 443.69217088 526.62863438 444.5078125 529.36328125 C444.99353098 530.96371656 445.47929115 532.56413922 445.96508789 534.16455078 C446.21614288 534.99698303 446.46719788 535.82941528 446.7258606 536.68707275 C451.14599349 551.3360121 455.72414863 565.91158325 460.73071289 580.37133789 C467.68273172 600.71177526 470.10184123 620.39302154 460.44140625 640.328125 C454.51689414 651.83283052 446.30657924 661.76968624 434.94140625 668.203125 C434.08289063 668.69941406 433.224375 669.19570313 432.33984375 669.70703125 C425.5321434 673.220979 418.54374743 675.23798218 411.1640625 677.1640625 C408.83011656 677.78306006 406.49630488 678.40256401 404.16259766 679.02246094 C403.52649409 679.19077486 402.89039053 679.35908878 402.2350111 679.53250313 C393.28303632 681.90199253 384.34570369 684.32598966 375.40625 686.7421875 C373.56439056 687.23975775 371.72252242 687.73729576 369.88064575 688.23480225 C366.11966696 689.25070039 362.35876462 690.26688096 358.59790039 691.28320312 C354.7693784 692.31767543 350.94058719 693.35114284 347.11157227 694.38378906 C342.39972207 695.65455109 337.68838676 696.92720614 332.97738838 698.20112228 C331.21369521 698.67771707 329.44983039 699.15367724 327.68577385 699.62892532 C318.32075308 702.15241049 308.97928106 704.73083728 299.68720913 707.51256752 C292.67531904 709.6069834 285.59785087 711.40876634 278.50390625 713.203125 C275.77674935 713.89872869 273.05035449 714.59728089 270.32421875 715.296875 C269.66971237 715.46473511 269.01520599 715.63259521 268.34086609 715.80554199 C262.83138354 717.22266468 257.34922765 718.72211542 251.87524414 720.26953125 C243.36705776 722.66614758 234.81814371 724.91261531 226.27319336 727.17382812 C219.59836433 728.94460075 212.93642028 730.75238997 206.28515625 732.609375 C195.48816354 735.62282675 184.65788189 738.50971127 173.82763672 741.40087891 C162.57661839 744.40578311 151.34055864 747.45703271 140.12524414 750.59265137 C134.29506072 752.22243042 128.46277437 753.84469177 122.63085938 755.46826172 C121.18544114 755.8708771 119.74012644 756.27386438 118.29492188 756.67724609 C99.70721695 761.86441443 81.06955049 766.86564017 62.40625 771.7734375 C61.29089874 772.06676971 60.17554749 772.36010193 59.02639771 772.662323 C54.49788695 773.85270641 49.96923178 775.04252117 45.43969727 776.22900391 C33.3862577 779.38783635 21.36587427 782.59813663 9.42797852 786.17041016 C4.95692695 787.49472555 0.46086384 788.68246311 -4.05859375 789.828125 C-14.53262698 792.52708117 -24.98689986 795.29809071 -35.43554688 798.09344482 C-37.24616591 798.57750713 -39.05703275 799.06064358 -40.86816406 799.54278564 C-43.45574047 800.23180336 -46.04249306 800.92381711 -48.62890625 801.6171875 C-49.86867973 801.94802086 -49.86867973 801.94802086 -51.13349915 802.28553772 C-55.8273877 803.55200294 -60.43499897 804.9675623 -65.046875 806.51171875 C-71.14089725 808.42059589 -76.7646039 808.78516132 -83.12109375 808.640625 C-84.16894043 808.62523682 -85.21678711 808.60984863 -86.29638672 808.59399414 C-104.11035325 808.14843677 -119.17838445 801.61384965 -132.05859375 789.203125 C-147.57945921 772.79149683 -151.19883819 750.51227766 -155.67901611 729.18444824 C-156.62925817 724.66193633 -157.59460392 720.14268414 -158.55883789 715.62313843 C-159.0441109 713.34776207 -159.5286534 711.07222979 -160.01245117 708.79653931 C-162.02373288 699.33843331 -164.08187217 689.89151874 -166.18359375 680.453125 C-166.42079132 679.38609848 -166.42079132 679.38609848 -166.66278076 678.29751587 C-169.38712955 666.05598607 -172.22414495 653.84135459 -175.06652832 641.62680054 C-178.19388517 628.1677702 -181.12491138 614.67329796 -183.98605347 601.15545654 C-187.02791108 586.80247783 -190.25241497 572.49738522 -193.55859375 558.203125 C-197.0653001 543.04188403 -200.461275 527.86489296 -203.68359375 512.640625 C-206.53512194 499.17190633 -209.50030849 485.73710513 -212.62109375 472.328125 C-212.90371567 471.11358643 -212.90371567 471.11358643 -213.19204712 469.87451172 C-213.37979706 469.06771973 -213.567547 468.26092773 -213.76098633 467.4296875 C-216.18479274 457.01152973 -218.55982913 446.58433714 -220.87109375 436.140625 C-221.02796661 435.43190247 -221.18483948 434.72317993 -221.34646606 433.99298096 C-222.01344783 430.9784481 -222.67995306 427.96381043 -223.34584045 424.94903564 C-225.64395175 414.54639443 -227.95840464 404.1473817 -230.27059937 393.74786377 C-231.0593657 390.19965244 -231.84774406 386.65135513 -232.63598633 383.10302734 C-234.81524751 373.29321313 -236.99465686 363.48344159 -239.18359375 353.67578125 C-243.05361249 336.32869616 -246.87345161 318.97078031 -250.66967773 301.60739136 C-251.21706697 299.10413673 -251.76491251 296.60098184 -252.31323242 294.09793091 C-253.082755 290.58385037 -253.85026133 287.06933549 -254.6171875 283.5546875 C-254.84909286 282.49697647 -255.08099823 281.43926544 -255.31993103 280.34950256 C-259.91480034 259.2466009 -258.16817154 241.85405628 -247.05859375 223.203125 C-235.16394367 205.1585356 -216.10222961 197.40440134 -195.99609375 192.203125 C-194.436232 191.78589654 -192.87674891 191.36725013 -191.31762695 190.94726562 C-186.57082899 189.67500516 -181.815469 188.43706805 -177.05859375 187.203125 C-175.53704719 186.80622789 -174.01556178 186.4090963 -172.49414062 186.01171875 C-165.75374274 184.25326983 -159.00908218 182.51310609 -152.2578125 180.796875 C-147.83466027 179.66962328 -143.43600373 178.49630372 -139.05859375 177.203125 C-139.27515625 175.49382812 -139.27515625 175.49382812 -139.49609375 173.75 C-142.95511387 144.98017666 -141.45167144 115.83997997 -129.05859375 89.203125 C-128.78031738 88.59887695 -128.50204102 87.99462891 -128.21533203 87.37207031 C-111.16320487 50.6855577 -81.13854187 22.32606366 -43.05859375 8.203125 C-29.06214359 3.64614123 -14.77089078 0.09060513 0 0 Z " fill="#FEFEFE" transform="translate(468.05859375,103.796875)"/>
<path d="M0 0 C0.40089844 1.11375 0.80179688 2.2275 1.21484375 3.375 C8.00291201 21.77974147 16.48882166 38.4474353 32 51 C32.73734375 51.63550781 33.4746875 52.27101563 34.234375 52.92578125 C44.63347067 61.67665424 56.14880282 67.70096856 69 72 C70.0209375 72.39316406 71.041875 72.78632813 72.09375 73.19140625 C88.45852872 78.67819538 108.07721196 76.86255725 125 75 C127.83949898 81.96967932 129.61128273 89.06803089 131.375 96.375 C133.37027392 104.51249481 135.38862614 112.63004287 137.6875 120.6875 C140.07328068 129.06159991 142.07612881 137.50917186 144 146 C130.14185893 150.1418234 116.59386108 151.52836343 102.1875 151.375 C101.4028537 151.37034729 100.6182074 151.36569458 99.80978394 151.36090088 C77.80197887 151.20834636 56.23610477 148.17588556 36 139 C36.63615234 140.80404297 36.63615234 140.80404297 37.28515625 142.64453125 C39.36934531 148.89954323 40.88244024 155.28451558 42.4375 161.6875 C44.17041721 168.80219607 45.93873622 175.88863326 47.98046875 182.921875 C49.9592554 189.74914201 51.68998998 196.6278168 53.3777771 203.53134155 C56.01567481 214.30716907 58.78466589 225.02204566 61.91699219 235.66650391 C63.93626969 242.59547878 65.61671365 249.58335562 67.24462891 256.61328125 C68.3864863 261.51725827 69.63237508 266.35735045 71.0625 271.1875 C75.57964506 286.52008588 78.23259876 301.38868594 78.25 317.375 C78.25133942 318.09553558 78.25267883 318.81607117 78.25405884 319.55844116 C78.24982765 330.02101385 77.75356804 339.85259185 75 350 C74.67515625 351.41539062 74.67515625 351.41539062 74.34375 352.859375 C68.71768337 376.03341135 56.2065983 395.79475568 40 413 C39.3503125 413.72574219 38.700625 414.45148438 38.03125 415.19921875 C16.49930907 438.26324009 -17.97863011 451.92021044 -49.1171875 453.2734375 C-70.03426774 453.79526975 -90.86526709 450.75768424 -110 442 C-110.6614502 441.70222656 -111.32290039 441.40445312 -112.00439453 441.09765625 C-145.65375075 425.73512753 -172.27114185 398.09154769 -185.46875 363.47265625 C-188.30896234 355.5104278 -190.25370455 347.26229875 -192 339 C-192.28145874 337.71210571 -192.28145874 337.71210571 -192.56860352 336.39819336 C-193.99921691 329.3393546 -194.34881089 322.50472682 -194.3125 315.3125 C-194.30831055 314.17127686 -194.30412109 313.03005371 -194.29980469 311.85424805 C-194.18018775 302.86834408 -193.19887554 294.70983167 -191 286 C-190.73316406 284.78957031 -190.46632813 283.57914063 -190.19140625 282.33203125 C-182.14902096 248.4110373 -159.73968313 219.3833972 -130.625 200.75 C-119.03245503 193.91410125 -107.02447399 188.4573393 -94 185 C-93.2884375 184.78730469 -92.576875 184.57460938 -91.84375 184.35546875 C-86.00608013 182.69268983 -80.03634217 182.38230167 -74 182 C-70.1725401 194.95447967 -66.7070225 207.96603758 -63.47753906 221.08251953 C-61.72556064 228.17577596 -59.84903665 235.19671294 -57.77734375 242.203125 C-56.60476096 246.42206611 -55.75496694 250.68874144 -55 255 C-56.16015625 255.09796875 -57.3203125 255.1959375 -58.515625 255.296875 C-72.82990048 256.61632587 -84.15672111 259.42003944 -96 268 C-96.70898438 268.50015625 -97.41796875 269.0003125 -98.1484375 269.515625 C-107.22163367 276.61638722 -113.52580071 288.15512375 -117 299 C-117.4125 300.216875 -117.825 301.43375 -118.25 302.6875 C-122.36818461 320.88840519 -116.79211621 337.18136323 -107.4921875 352.48046875 C-98.51909796 365.32480549 -83.8260018 374.73004618 -68.43359375 377.59375 C-50.14852538 379.75717106 -33.2717539 376.41196464 -18.3515625 364.96875 C-6.56976538 354.92061072 1.43372914 341.26573194 3.26928711 325.71923828 C4.34161062 310.77363435 1.29697005 297.87548182 -2.95166016 283.65136719 C-4.88983322 276.9007113 -6.52055727 270.07172548 -8.1875 263.25 C-10.00690393 255.81412602 -11.85457535 248.39988977 -13.98828125 241.046875 C-16.39672145 232.74223154 -18.44307464 224.35541797 -20.5 215.95898438 C-22.22299486 208.93912642 -23.98468133 201.94340259 -26 195 C-28.40576864 186.71137523 -30.4469129 178.33975009 -32.5 169.95898438 C-34.51970551 161.7302623 -36.66892707 153.56862822 -39.03125 145.4296875 C-40.98853231 138.50027675 -42.64606006 131.49374514 -44.35546875 124.5 C-45.78223764 118.71545283 -47.27401036 112.96742754 -48.9375 107.24609375 C-51.35232939 98.90702252 -53.42330338 90.49055989 -55.5 82.0625 C-58.22928916 71.01155469 -61.03255063 59.9896218 -64 49 C-64.85820678 45.7927309 -65.71149271 42.58418575 -66.5625 39.375 C-66.75779297 38.64539063 -66.95308594 37.91578125 -67.15429688 37.1640625 C-68.38185089 32.52574764 -69.50415538 27.87031384 -70.57788086 23.19384766 C-70.84507431 22.0314859 -71.11226776 20.86912415 -71.38755798 19.67153931 C-71.69071678 18.34912735 -71.69071678 18.34912735 -72 17 C-63.35243319 14.77642858 -54.70324179 12.55932384 -46.05191517 10.35042572 C-42.0346849 9.32451175 -38.01804676 8.29639089 -34.00268555 7.26318359 C-30.12664396 6.26591233 -26.24914808 5.27449455 -22.37058067 4.28709412 C-20.89210564 3.90961706 -19.414164 3.53004439 -17.93677711 3.14833069 C-15.86523625 2.61348873 -13.79191328 2.08617195 -11.71801758 1.56054688 C-10.53887283 1.2585437 -9.35972809 0.95654053 -8.14485168 0.64538574 C-5.31420898 0.06448189 -2.87531882 -0.13481979 0 0 Z " fill="#0A0A16" transform="translate(572,328)"/>
<path d="M0 0 C16.86767446 11.71760018 25.35294549 25.9029215 31.20507812 45.1171875 C32.38448351 48.9700719 33.59361896 52.81322139 34.8046875 56.65625 C36.24769783 61.23564545 37.68985535 65.81524 39.1184082 70.39916992 C41.6158594 78.40475117 44.18418998 86.37983317 46.85327148 94.33032227 C49.42374103 101.99525083 51.91329513 109.6871195 54.4140625 117.375 C54.69819 118.2478363 54.9823175 119.12067261 55.27505493 120.0199585 C59.25909874 132.26760161 63.14104789 144.54024784 66.91870117 156.85327148 C69.9552431 166.69890215 73.21460369 176.46283703 76.50244141 186.22631836 C79.55167123 195.31648639 82.41214805 204.45176505 85.19335938 213.62695312 C87.57495802 221.44262193 90.11668552 229.19530487 92.7265625 236.9375 C95.47377313 245.09143025 98.12997634 253.25822197 100.6015625 261.5 C106.10732285 279.83819658 112.13006421 298.01522947 118.06484985 316.21800232 C124.13607462 334.83995449 130.19504085 353.4659183 136.21621799 372.10412025 C137.24767306 375.29689429 138.28049993 378.48920464 139.31564331 381.68078613 C143.71340697 395.2438241 148.02371446 408.81225311 151.87303162 422.54289246 C153.31939659 427.64185376 155.03254025 432.38677679 157.1640625 437.25 C158.09535802 439.94776096 158.91482713 442.67550938 159.73046875 445.41015625 C160.21618723 447.01059156 160.7019474 448.61101422 161.18774414 450.21142578 C161.56432663 451.46007416 161.56432663 451.46007416 161.94851685 452.73394775 C166.36864974 467.3828871 170.94680488 481.95845825 175.95336914 496.41821289 C182.90538797 516.75865026 185.32449748 536.43989654 175.6640625 556.375 C169.73955039 567.87970552 161.52923549 577.81656124 150.1640625 584.25 C149.30554688 584.74628906 148.44703125 585.24257813 147.5625 585.75390625 C140.56191661 589.36741493 133.34754999 591.39640619 125.7578125 593.37890625 C123.42631948 593.99713332 121.09494492 594.61580725 118.76367188 595.23486328 C116.91358521 595.72421356 116.91358521 595.72421356 115.02612305 596.22344971 C109.00895486 597.82283576 103.00100644 599.45586955 96.99266052 601.08802414 C93.52297268 602.03001142 90.05247099 602.96899051 86.58203125 603.90820312 C82.32204371 605.06116782 78.06225557 606.21485113 73.80322266 607.37133789 C70.27903007 608.32823036 66.75418992 609.28270124 63.22888184 610.23547554 C61.90173441 610.59462854 60.57482665 610.95466839 59.24816895 611.31562614 C57.4199803 611.81291132 55.59087233 612.30681305 53.76171875 612.80053711 C52.20723022 613.22187172 52.20723022 613.22187172 50.62133789 613.65171814 C48.1640625 614.25 48.1640625 614.25 46.1640625 614.25 C44.64598539 592.56375282 43.39222069 570.86970422 42.24270749 549.16119361 C42.00665801 544.71161861 41.76830823 540.2621667 41.53025818 535.81269836 C41.07897282 527.37123004 40.62971481 518.92965513 40.18120664 510.48803884 C39.68180316 501.09059069 39.17992307 491.69327533 38.67791045 482.29596627 C36.81327517 447.38687826 34.96088664 412.47715792 33.12765503 377.56640625 C32.49370099 365.49575333 31.85592868 353.42532792 31.20703125 341.35546875 C31.13669678 340.04676315 31.0663623 338.73805756 30.99389648 337.38969421 C30.85302074 334.76911398 30.71214142 332.14853395 30.57125854 329.5279541 C29.24729774 304.88589984 27.95221295 280.24242114 26.6796875 255.59765625 C26.61490519 254.34329962 26.55012287 253.08894299 26.48337746 251.79657555 C25.8963646 240.42820057 25.30986061 229.05979954 24.72616577 217.69125366 C24.06259816 204.76728704 23.39563201 191.84351299 22.71959782 178.92019176 C22.40108462 172.82500592 22.08591416 166.72967215 21.77618408 160.6340332 C21.45455133 154.30434727 21.12653359 147.97502039 20.79431343 141.64588165 C20.67016841 139.25937923 20.54827946 136.87275819 20.42884636 134.48601532 C19.93739967 112.77206386 19.93739967 112.77206386 14.0390625 92.125 C13.57947144 91.1184436 13.57947144 91.1184436 13.1105957 90.09155273 C6.78334399 76.72549332 -2.55012618 66.61662873 -15.7109375 59.875 C-16.33419922 59.55313721 -16.95746094 59.23127441 -17.59960938 58.8996582 C-30.22832778 52.81540944 -42.99076857 52.78203788 -56.6953125 52.73828125 C-58.6959949 52.72140794 -60.69666688 52.70325419 -62.69732666 52.68388367 C-67.92501566 52.63666545 -73.15266236 52.6066746 -78.38049316 52.58044434 C-83.73030955 52.55049563 -89.07998056 52.50401495 -94.4296875 52.45898438 C-104.89836101 52.37327237 -115.36706469 52.30578534 -125.8359375 52.25 C-125.94532654 51.63003143 -126.05471558 51.01006287 -126.16741943 50.37130737 C-126.67334841 47.5151591 -127.18429992 44.65993043 -127.6953125 41.8046875 C-127.86724121 40.82975342 -128.03916992 39.85481934 -128.21630859 38.8503418 C-129.6554225 30.84150556 -131.54951929 23.05787496 -133.8359375 15.25 C-128.16558385 13.00642792 -122.57749013 11.3371355 -116.6484375 9.9375 C-109.70546238 8.25024786 -102.82092427 6.4352548 -95.9609375 4.4375 C-87.09564679 1.86249811 -78.19384273 -0.56221894 -69.2734375 -2.9375 C-68.0251416 -3.27048096 -66.7768457 -3.60346191 -65.49072266 -3.9465332 C-61.94116931 -4.88899102 -58.38901771 -5.8209385 -54.8359375 -6.75 C-53.73113037 -7.04422852 -52.62632324 -7.33845703 -51.48803711 -7.64160156 C-34.01443031 -12.19394662 -15.4897833 -9.55843377 0 0 Z " fill="#01FDF0" transform="translate(752.8359375,187.75)"/>
<path d="M0 0 C1.95582756 0.00560592 3.91165937 0.0098713 5.86749268 0.01286316 C10.97696885 0.02423353 16.08618293 0.0536322 21.19555664 0.0869751 C26.42460588 0.11784568 31.6536981 0.13140456 36.8828125 0.14648438 C47.11469751 0.17851044 57.34638933 0.22961064 67.578125 0.29296875 C67.63347412 1.08880371 67.68882324 1.88463867 67.74584961 2.70458984 C68.00089978 6.35915893 68.25824677 10.01356292 68.515625 13.66796875 C68.60263672 14.91964844 68.68964844 16.17132813 68.77929688 17.4609375 C69.27104559 24.41827123 69.82641432 31.35861481 70.578125 38.29296875 C63.52341868 41.21405809 56.23251712 43.00670215 48.84390259 44.85061646 C44.94271988 45.82747534 41.04766385 46.82818758 37.15234375 47.828125 C36.35624191 48.03245651 35.56014008 48.23678802 34.73991394 48.4473114 C-7.53221841 57.91622859 -7.53221841 57.91622859 -38.421875 86.29296875 C-49.31099616 105.09747517 -50.05698448 122.0595208 -45.421875 142.91796875 C-45.10508827 144.39307198 -44.7894419 145.86842051 -44.47485352 147.34399414 C-43.64517048 151.21442233 -42.7967315 155.08045758 -41.94122314 158.94525146 C-41.42556991 161.27626586 -40.91322748 163.60798439 -40.40185547 165.93994141 C-38.6321179 174.00379467 -36.8406352 182.06257236 -35.03063965 190.11747742 C-32.74960976 200.2748515 -30.4981648 210.4388216 -28.24160767 220.60165405 C-26.84669715 226.88303565 -25.45061592 233.16415705 -24.0546875 239.4453125 C-23.6228959 241.38845886 -23.19110432 243.33160522 -22.7593174 245.27475262 C-21.55599046 250.68997632 -20.35247593 256.10515825 -19.14860821 261.52026176 C-18.37374501 265.00568051 -17.59896053 268.49111676 -16.82421875 271.9765625 C-16.67353502 272.65445705 -16.5228513 273.33235161 -16.36760139 274.03078842 C-14.59082922 282.02474185 -12.81719971 290.01937677 -11.05078125 298.015625 C-10.40401479 300.94148797 -9.75690086 303.86727375 -9.109375 306.79296875 C-8.95647003 307.4839566 -8.80356506 308.17494446 -8.64602661 308.88687134 C-5.98473233 320.89843011 -3.20423941 332.8811085 -0.41513062 344.86352539 C2.76004799 358.52590913 5.73365209 372.22534628 8.64035034 385.94708252 C11.32205542 398.59458152 14.1357625 411.2036417 17.078125 423.79296875 C20.22640063 437.26332514 23.21139716 450.75992199 26.078125 464.29296875 C28.97192478 477.94898593 31.97605685 491.57207146 35.140625 505.16796875 C38.97051951 521.63054245 42.68832558 538.11419794 46.32666016 554.62011719 C47.41748538 559.56763232 48.51186571 564.51435705 49.60674858 569.46097565 C50.79607354 574.8346198 51.98405771 580.20855935 53.17115974 585.58269501 C53.91495556 588.94992173 54.65915459 592.31705793 55.40441895 595.68395996 C56.24407091 599.47771165 57.08112656 603.27203374 57.91796875 607.06640625 C58.17176804 608.21170807 58.42556732 609.35700989 58.6870575 610.53701782 C58.92173233 611.60294159 59.15640717 612.66886536 59.39819336 613.76708984 C59.60278671 614.69331146 59.80738007 615.61953308 60.01817322 616.57382202 C60.61458358 619.47001297 61.10936737 622.37363317 61.578125 625.29296875 C48.12970867 625.40922791 34.68141348 625.4978691 21.23259544 625.55202961 C14.98658775 625.57803446 8.7409259 625.6132657 2.49511719 625.67016602 C-3.54145037 625.72481096 -9.57768692 625.75445768 -15.61448288 625.76735497 C-17.90840229 625.77653673 -20.20230523 625.79446548 -22.49608231 625.82161903 C-42.32984033 626.04690172 -56.09878108 622.69750563 -72.609375 611.04296875 C-84.94789282 598.97864022 -95.21112107 582.55807687 -95.62060547 564.82836914 C-95.62454365 563.09911393 -95.61737222 561.36981243 -95.6015625 559.640625 C-95.59667313 558.65905426 -95.59178375 557.67748352 -95.58674622 556.66616821 C-95.45013474 541.68971774 -94.79931255 526.72133651 -94.2107048 511.75738525 C-94.07306493 508.24008879 -93.9388569 504.72266405 -93.8044672 501.20524216 C-92.8457691 476.14705611 -91.78761008 451.09363304 -90.66983032 426.04208374 C-89.67432767 403.7303605 -88.80762712 381.41764089 -88.06811523 359.09570312 C-87.48352773 341.66444065 -87.48352773 341.66444065 -86.921875 333.515625 C-86.19770004 322.72180413 -85.97352489 311.9081812 -85.66387939 301.09606934 C-84.94515902 276.07197342 -84.0589468 251.05679358 -83.046875 226.04296875 C-82.79094646 219.71487262 -82.53541335 213.38676106 -82.28125 207.05859375 C-82.24805916 206.23257912 -82.21486832 205.40656448 -82.18067169 204.5555191 C-81.5473189 188.75561961 -80.95690656 172.95421296 -80.375 157.15234375 C-80.33032467 155.93991753 -80.28564934 154.7274913 -80.23962021 153.47832489 C-79.79282882 141.34646913 -79.348369 129.21452977 -78.90694427 117.08247757 C-78.74113493 112.532072 -78.57429954 107.98170437 -78.40727997 103.43134308 C-78.33003392 101.31939775 -78.25327638 99.20743448 -78.17707062 97.09545135 C-77.93886594 90.494049 -77.68697496 83.89334399 -77.421875 77.29296875 C-77.38603554 76.36908356 -77.35019608 75.44519836 -77.31327057 74.49331665 C-77.20572272 71.7796945 -77.08887034 69.066629 -76.96923828 66.35351562 C-76.93851164 65.55356422 -76.907785 64.75361282 -76.87612724 63.92942047 C-75.94081876 43.90046812 -66.90584306 27.77332369 -52.4296875 14.4609375 C-36.78787639 1.73937868 -19.36894947 -0.16427322 0 0 Z " fill="#FD004E" transform="translate(259.421875,242.70703125)"/>
<path d="M0 0 C12.03166408 10.13357887 23.15508348 23.72058837 28.99609375 38.5234375 C28.5637207 40.69482422 28.5637207 40.69482422 27.99609375 42.5234375 C5.23971001 48.948943 -17.56955153 55.13811426 -40.46704102 61.04125977 C-47.29442868 62.80625379 -54.09906635 64.63251678 -60.88671875 66.54394531 C-68.07488341 68.56116449 -75.28888172 70.47991461 -82.50390625 72.3984375 C-83.80216755 72.74380444 -85.10042601 73.08918206 -86.39868164 73.43457031 C-87.04249283 73.60584442 -87.68630402 73.77711853 -88.34962463 73.95358276 C-88.99350632 74.12487701 -89.637388 74.29617126 -90.30078125 74.47265625 C-90.94567001 74.6441922 -91.59055878 74.81572815 -92.25498962 74.99246216 C-105.93662594 78.63297329 -119.61589581 82.28477684 -133.25390625 86.0859375 C-134.29200439 86.37476807 -134.29200439 86.37476807 -135.35107422 86.66943359 C-138.5137637 87.5497849 -141.67605727 88.4314454 -144.83691406 89.31835938 C-147.84957924 90.16241245 -150.86408884 90.99960846 -153.87890625 91.8359375 C-154.82540039 92.102854 -155.77189453 92.36977051 -156.74707031 92.64477539 C-158.07689941 93.01203735 -158.07689941 93.01203735 -159.43359375 93.38671875 C-160.21976074 93.60626221 -161.00592773 93.82580566 -161.81591797 94.05200195 C-164.00390625 94.5234375 -164.00390625 94.5234375 -168.00390625 94.5234375 C-174.32103065 69.89101401 -167.20259558 44.87978026 -154.53125 23.46484375 C-148.85520924 14.32098148 -141.50801941 6.11452709 -133.00390625 -0.4765625 C-132.20855469 -1.10820312 -131.41320312 -1.73984375 -130.59375 -2.390625 C-91.70001668 -32.06213289 -37.88437612 -30.72734906 0 0 Z " fill="#0B0A16" transform="translate(544.00390625,173.4765625)"/>
<path d="M0 0 C0.97486521 12.42953144 -4.5627929 25.93163077 -12.0703125 35.69140625 C-14.29481302 38.22981712 -16.60169186 40.6258359 -19 43 C-19.66515625 43.69867187 -20.3303125 44.39734375 -21.015625 45.1171875 C-25.41150857 49.42918016 -30.20380953 52.47784781 -35.625 55.3125 C-36.22707275 55.63814941 -36.82914551 55.96379883 -37.44946289 56.29931641 C-49.72363819 62.35842027 -63.79076977 62.51035739 -77.17578125 62.68359375 C-79.01598345 62.71674426 -80.85617793 62.75032566 -82.69636536 62.7842865 C-109.60674377 63.23467325 -136.52896885 63.11320055 -163.44221604 63.07202947 C-171.05119593 63.06058387 -178.66017706 63.05528684 -186.26916349 63.05032361 C-201.84611898 63.04003446 -217.42305717 63.0225943 -233 63 C-233 62.67 -233 62.34 -233 62 C-228.56297114 60.81073652 -224.12539649 59.62352113 -219.6875 58.4375 C-219.01373322 58.25737366 -218.33996643 58.07724731 -217.64578247 57.8916626 C-208.08838762 55.33810513 -198.51930488 52.83567261 -188.9375 50.375 C-180.24394511 48.13897624 -171.60132186 45.77748055 -162.98339844 43.2668457 C-155.919643 41.22445212 -148.81164118 39.38165451 -141.6875 37.5625 C-133.0107598 35.34574309 -124.39537091 32.99358933 -115.8125 30.4375 C-106.8572628 27.7717756 -97.85918961 25.41639208 -88.78393555 23.19677734 C-81.48860317 21.40197433 -74.26945741 19.41262784 -67.0559082 17.31567383 C-59.15321463 15.02387052 -51.21380225 12.88239324 -43.26367188 10.76171875 C-37.17862493 9.13520117 -31.10366937 7.47817577 -25.0390625 5.77734375 C-23.70638543 5.40476649 -22.37370317 5.03220775 -21.04101562 4.65966797 C-18.47298515 3.941494 -15.90707244 3.21683367 -13.34179688 2.48876953 C-12.17970703 2.16376465 -11.01761719 1.83875977 -9.8203125 1.50390625 C-8.27754639 1.06800171 -8.27754639 1.06800171 -6.70361328 0.62329102 C-4 0 -4 0 0 0 Z " fill="#FC024E" transform="translate(798,803)"/>
<path d="M0 0 C-2.70312554 1.3829075 -5.21268605 2.44080746 -8.1484375 3.2265625 C-8.97311523 3.44948975 -9.79779297 3.67241699 -10.64746094 3.90209961 C-11.99759277 4.2599353 -11.99759277 4.2599353 -13.375 4.625 C-14.33180664 4.88224854 -15.28861328 5.13949707 -16.27441406 5.40454102 C-19.51504898 6.27434964 -22.75742476 7.1374545 -26 8 C-28.40369155 8.64175589 -30.807336 9.28368818 -33.2109375 9.92578125 C-38.28596257 11.28051277 -43.36156719 12.63304889 -48.4375 13.984375 C-55.54387476 15.8772284 -62.64799484 17.7783189 -69.75 19.6875 C-70.72291992 19.94845459 -71.69583984 20.20940918 -72.69824219 20.47827148 C-84.05761055 23.5353172 -95.38561702 26.70639646 -106.71308899 29.87921143 C-138.15117847 38.68387616 -138.15117847 38.68387616 -149.92724609 41.46679688 C-153.49057172 42.3181888 -156.85192941 43.31109649 -160.28125 44.60546875 C-165.75952932 46.4700514 -171.07231622 46.45418431 -176.8125 46.375 C-178.41134033 46.3586853 -178.41134033 46.3586853 -180.04248047 46.34204102 C-197.95359177 45.97855162 -213.04554627 39.48226286 -226 27 C-232.0104949 20.64455496 -240 11.12995881 -240 2 C-212.98988354 1.7375277 -185.97975183 1.47667605 -158.96960163 1.21769714 C-146.42528365 1.09738279 -133.88097098 0.97655954 -121.33666992 0.85449219 C-110.38929654 0.74796572 -99.44191401 0.64244101 -88.49451989 0.53806591 C-82.71050986 0.48288619 -76.92650525 0.42724115 -71.14251137 0.37039185 C-47.42788641 0.13761683 -23.71601978 -0.08736336 0 0 Z " fill="#02FDEF" transform="translate(562,866)"/>
<path d="M0 0 C0.33 0.66 0.66 1.32 1 2 C33.01 2 65.02 2 98 2 C94.23564306 3.88217847 90.65424667 5.04076635 86.625 6.125 C85.861875 6.33382812 85.09875 6.54265625 84.3125 6.7578125 C75.23292841 9.23150383 66.13426513 11.63541145 57.03955078 14.05273438 C50.18339817 15.8761758 43.33266191 17.71524486 36.5 19.625 C35.82437012 19.81344482 35.14874023 20.00188965 34.45263672 20.19604492 C31.36266754 21.05869498 28.27325141 21.9232754 25.18457031 22.79052734 C22.16607514 23.63615491 19.14569865 24.47478185 16.125 25.3125 C15.17818359 25.57949707 14.23136719 25.84649414 13.25585938 26.12158203 C12.36962891 26.36634277 11.48339844 26.61110352 10.5703125 26.86328125 C9.78414551 27.08282471 8.99797852 27.30236816 8.18798828 27.52856445 C6 28 6 28 2 28 C0.33042768 21.48603871 -0.26029841 15.64517871 -0.125 8.9375 C-0.11597656 8.07189453 -0.10695313 7.20628906 -0.09765625 6.31445312 C-0.07439723 4.20951221 -0.03854008 2.10471658 0 0 Z " fill="#FA034F" transform="translate(374,240)"/>
<path d="M0 0 C2.2099126 3.90349047 3.36125693 8.09884614 4.625 12.375 C4.85445312 13.1175 5.08390625 13.86 5.3203125 14.625 C5.536875 15.35460937 5.7534375 16.08421875 5.9765625 16.8359375 C6.27167725 17.81892822 6.27167725 17.81892822 6.57275391 18.82177734 C7 21 7 21 7 27 C-26.33 27 -59.66 27 -94 27 C-90.68400254 25.34200127 -88.1194372 24.40560574 -84.58203125 23.51953125 C-82.96832642 23.10985107 -82.96832642 23.10985107 -81.32202148 22.69189453 C-80.16387939 22.40169434 -79.0057373 22.11149414 -77.8125 21.8125 C-67.8195575 19.26753574 -57.87607824 16.59754354 -47.95751953 13.77783203 C-41.65941074 11.99808277 -35.34644779 10.28768029 -29.015625 8.62890625 C-27.85753075 8.32506012 -27.85753075 8.32506012 -26.67604065 8.01507568 C-22.84221529 7.01032317 -19.00696602 6.01146197 -15.16967773 5.02001953 C-13.76282394 4.6528 -12.35600273 4.28545564 -10.94921875 3.91796875 C-9.70487061 3.59594482 -8.46052246 3.2739209 -7.1784668 2.94213867 C-4.5631075 2.16691235 -2.36632933 1.33020696 0 0 Z " fill="#05FAED" transform="translate(573,214)"/>
<path d="M0 0 C0.33 0 0.66 0 1 0 C0.7658992 1.95215172 0.7658992 1.95215172 0.52706909 3.94374084 C0.0118525 8.59565312 -0.25733177 13.22467252 -0.43310547 17.90014648 C-0.46750921 18.74681822 -0.50191296 19.59348995 -0.53735924 20.46581841 C-0.65038889 23.26746305 -0.75883283 26.06926471 -0.8671875 28.87109375 C-0.9469965 30.87608312 -1.02706042 32.88106236 -1.10736084 34.8860321 C-1.32253722 40.28123523 -1.53353215 45.6765944 -1.74359894 51.0719986 C-1.91963855 55.58080207 -2.098089 60.08950895 -2.27645683 64.59822083 C-3.57702131 97.49493149 -4.80759209 130.39405735 -5.99121094 163.29516602 C-6.10860948 166.55615648 -6.22611774 169.81714296 -6.34375 173.078125 C-6.3719709 173.86061049 -6.4001918 174.64309597 -6.42926788 175.44929314 C-6.98882216 190.93487297 -7.61000879 206.417692 -8.25006104 221.90014648 C-8.79809385 235.2015717 -9.22595232 248.50049832 -9.55380249 261.809021 C-9.86023061 274.02657327 -10.41998834 286.22141672 -11.06585693 298.425354 C-11.89418205 314.11178546 -12.53287463 329.80297761 -13.125 345.5 C-13.16938202 346.6761084 -13.21376404 347.8522168 -13.25949097 349.06396484 C-13.50950313 355.70919368 -13.75651036 362.35452901 -14 369 C-14.33 369 -14.66 369 -15 369 C-15.02314652 361.47228843 -15.04092691 353.94458053 -15.05181217 346.41684151 C-15.05703593 342.92159902 -15.06412441 339.42638084 -15.07543945 335.93115234 C-15.08835974 331.91503666 -15.0932324 327.8989466 -15.09765625 323.8828125 C-15.10281754 322.62445587 -15.10797882 321.36609924 -15.11329651 320.0696106 C-15.11337204 318.90855804 -15.11344757 317.74750549 -15.11352539 316.55126953 C-15.115746 315.52534698 -15.11796661 314.49942444 -15.12025452 313.44241333 C-15 311 -15 311 -14 309 C-13.85465974 306.09413128 -13.76559471 303.20857599 -13.71875 300.30078125 C-13.70034058 299.43237106 -13.68193115 298.56396088 -13.66296387 297.66923523 C-13.60412664 294.88372678 -13.55140382 292.09815492 -13.5 289.3125 C-13.44843663 286.54470367 -13.39538845 283.77698512 -13.33703613 281.00932312 C-13.30071265 279.2864315 -13.2682081 277.56345376 -13.2401123 275.84040833 C-13.14111765 271.13956387 -12.67383077 266.6594885 -12 262 C-11.7592892 258.60439355 -11.62908838 255.20615618 -11.5 251.8046875 C-11.45971176 250.80309097 -11.41942352 249.80149445 -11.37791443 248.76954651 C-11.2474235 245.47152275 -11.12332556 242.17329897 -11 238.875 C-10.95642365 237.74571075 -10.91284729 236.61642151 -10.86795044 235.45291138 C-10.07568935 214.79772739 -9.62211205 194.14222879 -9.34179688 173.47412109 C-9.3255275 172.3890477 -9.30925812 171.3039743 -9.29249573 170.1860199 C-9.26235946 168.15487882 -9.23620064 166.1236734 -9.21470642 164.09242249 C-9.20113602 163.19752609 -9.18756561 162.3026297 -9.17358398 161.38061523 C-9.15931618 160.213563 -9.15931618 160.213563 -9.14476013 159.02293396 C-9 157 -9 157 -8 154 C-7.89141691 152.56513485 -7.83418332 151.1260295 -7.81054688 149.68725586 C-7.79382935 148.81882553 -7.77711182 147.9503952 -7.7598877 147.0556488 C-7.74631226 146.11818314 -7.73273682 145.18071747 -7.71875 144.21484375 C-7.70034058 143.24398331 -7.68193115 142.27312286 -7.66296387 141.27284241 C-7.60419598 138.16112352 -7.55145935 135.04934779 -7.5 131.9375 C-7.4483393 128.8506526 -7.39519744 125.76387144 -7.33703613 122.67713928 C-7.30087885 120.7571538 -7.26834426 118.8370953 -7.2401123 116.91697693 C-7.14178851 111.67954668 -6.79540804 106.53737065 -6.23059082 101.33024597 C-5.89867262 97.97603156 -5.80055749 94.63040332 -5.71875 91.26171875 C-5.70034058 90.5742305 -5.68193115 89.88674225 -5.66296387 89.17842102 C-5.60518735 87.01485281 -5.55202053 84.8512137 -5.5 82.6875 C-5.11636282 66.84902127 -5.11636282 66.84902127 -4.4921875 59.8125 C-4.01165433 54.09708107 -3.87180678 48.4076545 -3.7890625 42.67578125 C-3.77474182 41.7554863 -3.76042114 40.83519135 -3.7456665 39.88700867 C-3.68809584 36.06200774 -3.63340519 32.23714926 -3.59863281 28.41186523 C-3.57083845 25.58283081 -3.52502102 22.75452761 -3.4765625 19.92578125 C-3.47330963 19.0776033 -3.47005676 18.22942535 -3.46670532 17.35554504 C-3.34159154 11.17648361 -2.02690288 5.82733369 0 0 Z " fill="#3C0117" transform="translate(184,291)"/>
<path d="M0 0 C0.33 0 0.66 0 1 0 C1.02564973 6.56127067 1.0429907 13.1225281 1.05493164 19.68383789 C1.05991707 21.90942874 1.06670781 24.1350164 1.07543945 26.3605957 C1.11780244 37.44723759 1.12766908 48.45744473 0.25170898 59.5144043 C-0.02673585 63.3702306 -0.17364559 67.2224418 -0.28125 71.0859375 C-0.30026871 71.76722214 -0.31928741 72.44850677 -0.33888245 73.1504364 C-0.39470593 75.22524219 -0.44783497 77.30009919 -0.5 79.375 C-0.71101675 87.72495264 -0.9727543 96.05782015 -1.5 104.39453125 C-2.01472018 112.5760062 -2.25819107 120.75296221 -2.44555664 128.94772339 C-2.70001751 140.00036799 -2.98082969 151.04163833 -3.625 162.0793457 C-3.93658062 167.79185992 -4.1067586 173.5039248 -4.25 179.22265625 C-4.27098755 180.05989731 -4.2919751 180.89713837 -4.31359863 181.75975037 C-4.41787424 185.99067267 -4.51597139 190.22166273 -4.60742188 194.45288086 C-4.90777608 207.64634172 -4.90777608 207.64634172 -5.5 213.66015625 C-6.54076747 224.78673141 -6.37350544 236.03513662 -6.55224609 247.20141602 C-6.60402806 250.3518023 -6.66119703 253.50205844 -6.71875 256.65234375 C-6.73232544 257.6169603 -6.74590088 258.58157684 -6.7598877 259.57542419 C-6.77660522 260.47728958 -6.79332275 261.37915497 -6.81054688 262.30834961 C-6.82307495 263.09600204 -6.83560303 263.88365448 -6.84851074 264.69517517 C-7.01314877 267.20005128 -7.49287288 269.54354336 -8 272 C-8.21462194 274.86344815 -8.39396876 277.71511269 -8.53515625 280.58203125 C-8.57813339 281.39621017 -8.62111053 282.2103891 -8.66539001 283.04924011 C-8.80119145 285.63682819 -8.93191679 288.22464386 -9.0625 290.8125 C-9.15396145 292.57228309 -9.24575466 294.33204897 -9.33789062 296.09179688 C-9.56243668 300.39434142 -9.78243216 304.69709718 -10 309 C-10.33 309 -10.66 309 -11 309 C-11.28242121 296.19690531 -10.82364724 283.46798429 -10.125 270.6875 C-9.21343048 253.8874964 -8.61572383 237.08804028 -8.12191772 220.27083206 C-7.4207749 196.42454863 -6.58919383 172.58709353 -5.625 148.75 C-5.37034392 142.44794673 -5.11621585 136.14587261 -4.86328125 129.84375 C-4.83021755 129.0203009 -4.79715385 128.19685181 -4.76308823 127.34844971 C-3.72015405 101.31791373 -2.77219103 75.28370908 -1.8125 49.25 C-1.72105263 46.77095527 -1.62960165 44.29191067 -1.53814697 41.81286621 C-1.02410056 27.87529297 -0.51137035 13.93767168 0 0 Z " fill="#C90F4C" transform="translate(182,320)"/>
<path d="M0 0 C-2.95842921 1.52107055 -5.74374553 2.59245725 -8.95703125 3.47265625 C-9.90513672 3.73240234 -10.85324219 3.99214844 -11.83007812 4.25976562 C-13.30637695 4.65711914 -13.30637695 4.65711914 -14.8125 5.0625 C-16.27139648 5.4656543 -16.27139648 5.4656543 -17.75976562 5.87695312 C-22.83475621 7.25479417 -27.77280531 8.4094801 -33 9 C-32.67 8.34 -32.34 7.68 -32 7 C-29.49609375 6.3671875 -29.49609375 6.3671875 -26.4375 5.875 C-25.42558594 5.70742188 -24.41367187 5.53984375 -23.37109375 5.3671875 C-22.58863281 5.24601563 -21.80617188 5.12484375 -21 5 C-21 4.34 -21 3.68 -21 3 C-54.69501268 2.93577807 -88.38765648 3.00176345 -122.08203125 3.21875 C-122.93255743 3.22422726 -123.7830836 3.22970451 -124.6593833 3.23534775 C-135.06401856 3.302681 -145.46862973 3.3733884 -155.87323368 3.44538212 C-164.86345442 3.50750399 -173.85369094 3.56719193 -182.84392893 3.62675762 C-201.22930358 3.74862206 -219.61465819 3.87328283 -238 4 C-237.24783203 5.41152344 -237.24783203 5.41152344 -236.48046875 6.8515625 C-235 10 -235 10 -235.3125 12.375 C-235.539375 12.91125 -235.76625 13.4475 -236 14 C-236.67354499 12.56570999 -237.33859701 11.12742943 -238 9.6875 C-238.37125 8.88699219 -238.7425 8.08648438 -239.125 7.26171875 C-240 5 -240 5 -240 2 C-212.98988354 1.7375277 -185.97975183 1.47667605 -158.96960163 1.21769714 C-146.42528365 1.09738279 -133.88097098 0.97655954 -121.33666992 0.85449219 C-110.38929654 0.74796572 -99.44191401 0.64244101 -88.49451989 0.53806591 C-82.71050986 0.48288619 -76.92650525 0.42724115 -71.14251137 0.37039185 C-47.42788641 0.13761683 -23.71601978 -0.08736336 0 0 Z " fill="#2DECE2" transform="translate(562,866)"/>
<path d="M0 0 C-0.99 0.33 -1.98 0.66 -3 1 C20.11222494 1.1032363 43.20662012 1.08901483 66.3125 0.5 C88.20860588 -0.05556292 110.09841056 -0.08469373 132 -0.0625 C133.27038809 -0.06121597 133.27038809 -0.06121597 134.56644058 -0.05990601 C145.04431538 -0.04850447 155.52215759 -0.02835777 166 0 C166 0.33 166 0.66 166 1 C161.09153335 1.78094598 156.27863719 2.19479221 151.30737305 2.31420898 C150.55018541 2.33486734 149.79299778 2.3555257 149.01286507 2.37681007 C146.45009224 2.44348911 143.88723185 2.50192789 141.32421875 2.55859375 C140.41261175 2.57965117 139.50100475 2.60070858 138.5617733 2.6224041 C110.56576317 3.24945463 82.55903567 3.11488713 54.55779159 3.07202756 C46.94880915 3.06058849 39.33982549 3.05528684 31.73083651 3.05032361 C16.15388102 3.04003446 0.57694283 3.0225943 -15 3 C-15 2.67 -15 2.34 -15 2 C-13.25364835 1.46706165 -11.50272348 0.94909337 -9.75 0.4375 C-8.77546875 0.14746094 -7.8009375 -0.14257812 -6.796875 -0.44140625 C-4.03756068 -0.99249836 -2.6087176 -0.93789609 0 0 Z " fill="#E00E51" transform="translate(580,863)"/>
<path d="M0 0 C4.6855913 0.04174843 9.37126736 0.07010902 14.0569458 0.10013247 C22.85656557 0.15842669 31.65605405 0.22806395 40.45555305 0.3022033 C50.50459423 0.38628616 60.55371692 0.45707409 70.60286522 0.52696919 C91.20681911 0.67056267 111.81062191 0.83012436 132.41436768 1.00085878 C132.41436768 1.33085878 132.41436768 1.66085878 132.41436768 2.00085878 C117.87282987 2.17927728 103.33116155 2.34470611 88.78936768 2.50085878 C87.13120718 2.51867466 87.13120718 2.51867466 85.43954849 2.53685045 C46.9932009 2.94603481 8.55028982 3.0903354 -29.89813232 3.06335878 C-31.12703438 3.06250277 -32.35593643 3.06164675 -33.62207794 3.06076479 C-48.60994476 3.04953448 -63.59778932 3.02970433 -78.58563232 3.00085878 C-78.58563232 2.67085878 -78.58563232 2.34085878 -78.58563232 2.00085878 C-52.35853782 0.40124484 -26.27206193 -0.24831491 0 0 Z " fill="#B0FDFB" transform="translate(400.58563232421875,864.9991412162781)"/>
<path d="M0 0 C-5.55261842 3.70174561 -11.04095607 4.24976576 -17.59934998 4.24050903 C-18.69862992 4.24307231 -18.69862992 4.24307231 -19.82011753 4.24568737 C-22.25835392 4.24896299 -24.69631075 4.23801067 -27.13452148 4.22705078 C-28.88922621 4.22648625 -30.64393141 4.22680405 -32.39863586 4.22793579 C-37.15017754 4.22850867 -41.90161785 4.21676487 -46.65313601 4.20278788 C-51.62324936 4.19026968 -56.59336514 4.18910916 -61.56349182 4.18673706 C-70.96976198 4.1805255 -80.37598555 4.16411904 -89.78223521 4.14403808 C-100.49319084 4.12166902 -111.20414873 4.11068311 -121.91512191 4.10064721 C-143.94344059 4.07975255 -165.97171736 4.04458284 -188 4 C-188 3.67 -188 3.34 -188 3 C-187.3696519 2.99576806 -186.7393038 2.99153612 -186.08985424 2.98717594 C-170.51928516 2.88239331 -154.94874969 2.77358316 -139.37823772 2.66066074 C-131.84746636 2.60613548 -124.3166905 2.55284143 -116.78588867 2.50268555 C-76.2362951 2.25508822 -76.2362951 2.25508822 -35.69114113 1.64414787 C-33.903881 1.60864981 -32.11656433 1.57586729 -30.32919884 1.54614449 C-22.13683604 1.40526484 -14.18560464 1.21336278 -6.16557312 -0.68089294 C-3.8050084 -1.0287329 -2.25189423 -0.73224674 0 0 Z " fill="#2E0013" transform="translate(754,863)"/>
<path d="M0 0 C2 3 2 3 3 13 C-30.33 13 -63.66 13 -98 13 C-94.20412969 11.10206484 -90.57098878 9.9421524 -86.5 8.875 C-85.83613281 8.69324219 -85.17226563 8.51148438 -84.48828125 8.32421875 C-81.16854651 7.44293188 -78.4651581 7 -75 7 C-75 7.66 -75 8.32 -75 9 C-76.98 9.33 -78.96 9.66 -81 10 C-54.27 10 -27.54 10 0 10 C0 6.7 0 3.4 0 0 Z " fill="#45EBE3" transform="translate(577,228)"/>
<path d="M0 0 C0.33 0 0.66 0 1 0 C1.08506201 11.92318522 0.83684498 23.80494251 0.37890625 35.71875 C0.31377744 37.47301269 0.24891861 39.22728542 0.18431091 40.98156738 C0.01486929 45.56187548 -0.15835875 50.14203257 -0.33239746 54.72216797 C-0.50596376 59.30947876 -0.67557966 63.89693549 -0.84570312 68.484375 C-1.87883603 96.25337769 -1.87883603 96.25337769 -2.4614563 109.9834137 C-2.87753629 119.85180414 -3.13600233 129.68491766 -3.0625 139.5625 C-3.05798828 140.78517578 -3.05347656 142.00785156 -3.04882812 143.26757812 C-3.03741295 146.17844705 -3.02125157 149.08918945 -3 152 C-3.66 151.67 -4.32 151.34 -5 151 C-5.02508834 145.59635744 -5.04303972 140.19275024 -5.05493164 134.7890625 C-5.0598995 132.95832731 -5.06667607 131.12759595 -5.07543945 129.296875 C-5.11565164 120.66781221 -5.14793094 112.07649852 -4.52734375 103.46484375 C-3.5580037 89.90438609 -3.6313295 76.28395176 -3.44775391 62.69506836 C-3.3963067 58.98544166 -3.33905358 55.27593847 -3.28125 51.56640625 C-3.26767456 50.41870255 -3.25409912 49.27099884 -3.2401123 48.08851624 C-3.21503601 46.5143821 -3.21503601 46.5143821 -3.18945312 44.90844727 C-3.17692505 43.98185806 -3.16439697 43.05526886 -3.15148926 42.1006012 C-3 40 -3 40 -2 39 C-1.85300682 36.71895377 -1.77237725 34.43358586 -1.71875 32.1484375 C-1.69113586 31.11005234 -1.69113586 31.11005234 -1.66296387 30.0506897 C-1.60405618 27.82554867 -1.55139433 25.60032644 -1.5 23.375 C-1.44836513 21.17110783 -1.39521512 18.96731 -1.33703613 16.76358032 C-1.28387392 14.74792382 -1.23651285 12.7321168 -1.18945312 10.71630859 C-1.0034198 7.06708264 -0.57524788 3.60345054 0 0 Z " fill="#370014" transform="translate(168,665)"/>
<path d="M0 0 C0.495 1.485 0.495 1.485 1 3 C-1.02623188 5.02623188 -5.21905411 4.15409182 -8.0012207 4.15771484 C-8.84040543 4.16279556 -9.67959015 4.16787628 -10.54420471 4.17311096 C-12.3748551 4.18384305 -14.20551883 4.192452 -16.03618813 4.19923019 C-18.94226056 4.21100427 -21.84818336 4.23045876 -24.75419617 4.25234985 C-33.02007991 4.31397669 -41.28595308 4.36779898 -49.55200195 4.40136719 C-54.60427209 4.42243838 -59.6562773 4.4578537 -64.708395 4.50212479 C-66.62708581 4.51620193 -68.54582358 4.52498831 -70.46456337 4.52817917 C-84.30612345 4.54990099 -84.30612345 4.54990099 -97.79875183 7.4581604 C-100 8 -100 8 -103 7 C-102.07316406 6.72285156 -101.14632812 6.44570312 -100.19140625 6.16015625 C-98.99386719 5.79792969 -97.79632813 5.43570313 -96.5625 5.0625 C-94.77005859 4.52302734 -94.77005859 4.52302734 -92.94140625 3.97265625 C-90.14132455 3.29110858 -90.14132455 3.29110858 -89 2 C-86.23061034 1.90482197 -83.48622841 1.87445735 -80.71655273 1.88647461 C-79.41423203 1.88625557 -79.41423203 1.88625557 -78.08560181 1.8860321 C-75.20157414 1.88673154 -72.3176102 1.89452537 -69.43359375 1.90234375 C-67.43962133 1.90420782 -65.44564845 1.90563177 -63.45167542 1.90663147 C-58.19254298 1.91045752 -52.93343797 1.92028855 -47.67431641 1.93133545 C-42.31217825 1.9415477 -36.95003569 1.94612869 -31.58789062 1.95117188 C-21.05858167 1.96191074 -10.52929311 1.9789882 0 2 C0 1.34 0 0.68 0 0 Z " fill="#4E011E" transform="translate(327,239)"/>
<path d="M0 0 C0.33 0.66 0.66 1.32 1 2 C33.01 2 65.02 2 98 2 C94.69735868 3.65132066 91.95993358 4.67609952 88.4375 5.625 C87.48746094 5.88539063 86.53742188 6.14578125 85.55859375 6.4140625 C83 7 83 7 80 7 C80 6.34 80 5.68 80 5 C83.465 4.505 83.465 4.505 87 4 C58.95 3.67 30.9 3.34 2 3 C2.33 8.94 2.66 14.88 3 21 C2.01 20.34 1.02 19.68 0 19 C-0.34057617 17.02880859 -0.34057617 17.02880859 -0.29296875 14.6484375 C-0.28330078 13.79765625 -0.27363281 12.946875 -0.26367188 12.0703125 C-0.23853516 11.18085938 -0.21339844 10.29140625 -0.1875 9.375 C-0.17396484 8.4778125 -0.16042969 7.580625 -0.14648438 6.65625 C-0.11106925 4.43690211 -0.06168461 2.21874812 0 0 Z " fill="#DB1554" transform="translate(374,240)"/>
<path d="M0 0 C-0.99 0.33 -1.98 0.66 -3 1 C36.27 1.33 75.54 1.66 116 2 C116 2.33 116 2.66 116 3 C72.77 3 29.54 3 -15 3 C-15 2.67 -15 2.34 -15 2 C-13.25364835 1.46706165 -11.50272348 0.94909337 -9.75 0.4375 C-8.77546875 0.14746094 -7.8009375 -0.14257812 -6.796875 -0.44140625 C-4.03756068 -0.99249836 -2.6087176 -0.93789609 0 0 Z " fill="#B41046" transform="translate(580,863)"/>
<path d="M0 0 C-6.90769173 2.99767754 -13.7153681 5.07496787 -21.0625 6.6875 C-22.92908107 7.10497462 -24.79500939 7.52538251 -26.66015625 7.94921875 C-27.47105713 8.12799561 -28.28195801 8.30677246 -29.11743164 8.4909668 C-30.9977011 8.83169265 -30.9977011 8.83169265 -32 10 C-34.11678041 10.49490922 -36.24406288 10.94511464 -38.375 11.375 C-43.86546375 12.51115101 -49.22912718 13.83617843 -54.59765625 15.44921875 C-57.14008813 16.03211777 -59.40053898 16.09730603 -62 16 C-62 16.66 -62 17.32 -62 18 C-68.25948114 20.13391403 -74.42208127 20.58955515 -81 21 C-78.13910813 19.09273875 -76.46486645 18.47728251 -73.1953125 17.703125 C-72.23061035 17.46988525 -71.2659082 17.23664551 -70.27197266 16.99633789 C-69.23347168 16.75004639 -68.1949707 16.50375488 -67.125 16.25 C-59.24509737 14.33271008 -51.41117684 12.33156658 -43.625 10.0625 C-34.26386968 7.3356651 -24.86099567 4.78334007 -15.43994141 2.27172852 C-14.38468262 1.98998779 -13.32942383 1.70824707 -12.2421875 1.41796875 C-11.3022998 1.16813232 -10.36241211 0.9182959 -9.39404297 0.66088867 C-3.29533993 -1.0226917 -3.29533993 -1.0226917 0 0 Z " fill="#DC255F" transform="translate(772,811)"/>
<path d="M0 0 C2 3 2 3 2 6 C-11.56939018 6.04636089 -25.13876148 6.08188836 -38.70821476 6.10362434 C-45.00919965 6.11405703 -51.31013031 6.12820699 -57.61108398 6.15087891 C-63.6929776 6.17262541 -69.77481908 6.1845725 -75.85674858 6.18975449 C-78.17594663 6.19344697 -80.49514187 6.20065746 -82.8143177 6.21146011 C-86.06515777 6.22599885 -89.31578299 6.22797692 -92.56665039 6.22705078 C-93.523311 6.23424133 -94.47997162 6.24143188 -95.46562195 6.24884033 C-100.70755175 6.23270368 -105.03824519 5.71751722 -110 4 C-110 3.67 -110 3.34 -110 3 C-108.52093108 2.97310784 -107.04172517 2.95365379 -105.5625 2.9375 C-104.73878906 2.92589844 -103.91507813 2.91429687 -103.06640625 2.90234375 C-101 3 -101 3 -100 4 C-96.89564263 4.125405 -93.81247504 4.1861327 -90.70678711 4.20532227 C-89.24353249 4.22017166 -89.24353249 4.22017166 -87.75071716 4.23532104 C-84.50961782 4.26703948 -81.26850378 4.29173419 -78.02734375 4.31640625 C-75.78674426 4.33696686 -73.54614873 4.35796308 -71.30555725 4.37937927 C-65.39544877 4.43469225 -59.48530475 4.4840607 -53.57513428 4.53222656 C-47.54940614 4.5823744 -41.52372988 4.63809545 -35.49804688 4.69335938 C-23.66540886 4.80105372 -11.83272588 4.90247348 0 5 C0 3.35 0 1.7 0 0 Z " fill="#D61656" transform="translate(319,862)"/>
<path d="M0 0 C0.33 0 0.66 0 1 0 C1.43573594 7.44785045 1.86180829 14.89621254 2.28173828 22.3449707 C2.42511741 24.86918106 2.57056117 27.39327515 2.71826172 29.91723633 C3.61666374 45.29702333 4.22689919 60.59291456 4 76 C3.67 76 3.34 76 3 76 C1.82308738 68.96794707 1.64616093 61.94560639 1.39453125 54.83007812 C1.35714844 53.88197266 1.31976562 52.93386719 1.28125 51.95703125 C1.25095703 51.10085205 1.22066406 50.24467285 1.18945312 49.36254883 C1.07697022 47.05920909 1.07697022 47.05920909 0.49525452 45.12742615 C-0.02935735 42.87389193 -0.120324 40.9101612 -0.11352539 38.59863281 C-0.11344986 37.7380426 -0.11337433 36.87745239 -0.11329651 35.99078369 C-0.10813522 35.07085632 -0.10297394 34.15092896 -0.09765625 33.203125 C-0.0962413 32.25435486 -0.09482635 31.30558472 -0.09336853 30.32806396 C-0.08777742 27.30201038 -0.07522652 24.27603117 -0.0625 21.25 C-0.05748385 19.19661565 -0.05292115 17.14323014 -0.04882812 15.08984375 C-0.03781089 10.05986724 -0.02055233 5.02994622 0 0 Z " fill="#B9FDFC" transform="translate(791,660)"/>
<path d="M0 0 C1.97862727 3.40024603 2.56066663 6.56330661 3.125 10.4375 C3.29257812 11.54996094 3.46015625 12.66242188 3.6328125 13.80859375 C4 17 4 17 4 22 C33.7 22 63.4 22 94 22 C94 22.33 94 22.66 94 23 C63.97 23 33.94 23 3 23 C-0.375 9.5 -0.375 9.5 -0.1875 4.75 C-0.16042969 3.83734375 -0.13335938 2.9246875 -0.10546875 1.984375 C-0.07066406 1.32953125 -0.03585937 0.6746875 0 0 Z " fill="#D6FFFF" transform="translate(623,218)"/>
<path d="M0 0 C1.86049951 2.79074926 2.72737535 4.86121196 3.73999023 8.01538086 C4.07050888 9.03752182 4.40102753 10.05966278 4.74156189 11.11277771 C5.0936824 12.2189595 5.44580292 13.3251413 5.80859375 14.46484375 C6.35967552 16.18037193 6.35967552 16.18037193 6.92189026 17.93055725 C7.69996652 20.3567008 8.47569503 22.78359834 9.24926758 25.21118164 C10.42347449 28.89351576 11.60664692 32.57287661 12.79101562 36.25195312 C13.54741899 38.61440923 14.30329474 40.97703434 15.05859375 43.33984375 C15.40869003 44.42780746 15.75878632 45.51577118 16.11949158 46.63670349 C18.36219931 53.69751842 20.28829205 60.7921793 22 68 C20.515 68.495 20.515 68.495 19 69 C18.81824219 67.99839844 18.63648438 66.99679687 18.44921875 65.96484375 C18.19573451 64.62231609 17.94180432 63.27987257 17.6875 61.9375 C17.56955078 61.28072266 17.45160156 60.62394531 17.33007812 59.94726562 C16.43936774 55.3110039 14.93907875 51.32830078 13 47 C12.23470168 44.80392655 11.50405615 42.59539867 10.8125 40.375 C10.46832031 39.28960938 10.12414062 38.20421875 9.76953125 37.0859375 C9.05858849 34.23494878 8.84269025 31.91836703 9 29 C8.34 29 7.68 29 7 29 C6.51933465 27.10454608 6.04053257 25.20861961 5.5625 23.3125 C5.29566406 22.25675781 5.02882813 21.20101562 4.75390625 20.11328125 C4.10102068 17.4171683 3.52058807 14.7242424 3 12 C2.34 12 1.68 12 1 12 C0.67 8.04 0.34 4.08 0 0 Z " fill="#1ED7D1" transform="translate(872,510)"/>
<path d="M0 0 C0.33 0 0.66 0 1 0 C1.43402549 7.52118952 1.86037758 15.0427877 2.28173828 22.56469727 C2.42553625 25.11622649 2.57100298 27.66766231 2.71826172 30.21899414 C3.52151032 44.15563066 4.27124198 58.03731672 4 72 C3.67 72 3.34 72 3 72 C0.57075964 61.00847239 0.559646 50.01724241 0.375 38.8125 C0.33669805 36.93943742 0.29763991 35.06639014 0.2578125 33.19335938 C0.03324364 22.12807398 -0.04942818 11.06733562 0 0 Z " fill="#B4FDFC" transform="translate(774,340)"/>
<path d="M0 0 C4.43104736 6.64657103 4.5552441 14.16974987 5.125 21.9375 C5.20991699 23.03892334 5.29483398 24.14034668 5.38232422 25.27514648 C6.00637353 33.86932261 6.23106314 42.38647961 6 51 C2.83900915 46.25851373 2.86822438 41.87144722 2.75390625 36.265625 C2.72103516 34.96882813 2.68816406 33.67203125 2.65429688 32.3359375 C2.60713362 30.29789848 2.56269151 28.25988218 2.52319336 26.22167969 C2.36694903 18.51612096 1.89829507 11.47021378 0 4 C0 2.68 0 1.36 0 0 Z " fill="#BFFDFC" transform="translate(768,283)"/>
<path d="M0 0 C0 0.66 0 1.32 0 2 C-1.98 2 -3.96 2 -6 2 C-6 2.66 -6 3.32 -6 4 C-6.99902344 4.20496094 -7.99804688 4.40992188 -9.02734375 4.62109375 C-10.31769531 4.89050781 -11.60804688 5.15992188 -12.9375 5.4375 C-14.22527344 5.70433594 -15.51304687 5.97117188 -16.83984375 6.24609375 C-19.84638879 6.67181616 -19.84638879 6.67181616 -21 8 C-23.73808268 8.49783321 -26.48494038 8.90032502 -29.23828125 9.3046875 C-32.18670367 10.04700602 -33.62337762 11.17792284 -36 13 C-38.33199388 13.07905064 -40.66832622 13.08798769 -43 13 C-43.33 13.33 -43.66 13.66 -44 14 C-46.67058851 14.14115161 -49.32432238 14.04247107 -52 14 C-52 13.67 -52 13.34 -52 13 C-51.14994385 12.78384033 -50.2998877 12.56768066 -49.42407227 12.3449707 C-45.46938502 11.33736446 -41.51565099 10.32611411 -37.5625 9.3125 C-36.8545932 9.13114502 -36.1466864 8.94979004 -35.41732788 8.76293945 C-25.88570005 6.31661453 -16.41236523 3.75320188 -7.01953125 0.8125 C-4 0 -4 0 0 0 Z " fill="#1EDBD4" transform="translate(694,183)"/>
<path d="M0 0 C0.33 1.32 0.66 2.64 1 4 C0.34 4 -0.32 4 -1 4 C-1.12375 4.721875 -1.2475 5.44375 -1.375 6.1875 C-2 9 -2 9 -3 11.375 C-4.20944908 14.54980384 -4.54811437 17.64313531 -5 21 C-5.33 21.33 -5.66 21.66 -6 22 C-6.15714654 23.63256758 -6.25085414 25.27135338 -6.31640625 26.91015625 C-6.35830078 27.89951172 -6.40019531 28.88886719 -6.44335938 29.90820312 C-6.50233398 31.46958008 -6.50233398 31.46958008 -6.5625 33.0625 C-6.60568359 34.10728516 -6.64886719 35.15207031 -6.69335938 36.22851562 C-6.79981225 38.81886884 -6.9018276 41.40932186 -7 44 C-7.66 44 -8.32 44 -9 44 C-9.62480807 27.87648066 -8.2283073 14.33209264 0 0 Z " fill="#CC0F4D" transform="translate(192,275)"/>
<path d="M0 0 C-13.36623863 7.77341673 -30.35414931 15 -46 15 C-46 14.34 -46 13.68 -46 13 C-43.69 13 -41.38 13 -39 13 C-39 12.34 -39 11.68 -39 11 C-37.2984375 10.7834375 -37.2984375 10.7834375 -35.5625 10.5625 C-32.19222799 10.38828522 -32.19222799 10.38828522 -31 9 C-29.42393803 8.65268264 -27.83862922 8.34685523 -26.25 8.0625 C-22.60988867 7.37186547 -19.41726901 6.44975049 -16 5 C-15.01 5 -14.02 5 -13 5 C-13 4.34 -13 3.68 -13 3 C-11.35 3 -9.7 3 -8 3 C-7.67 2.01 -7.34 1.02 -7 0 C-4.05610218 -1.17755913 -3.10046087 -1.03348696 0 0 Z " fill="#1EE3DA" transform="translate(906,770)"/>
<path d="M0 0 C1.64935547 0.01353516 1.64935547 0.01353516 3.33203125 0.02734375 C6.01325758 0.05065876 8.69400607 0.0833796 11.375 0.125 C11.87 1.61 11.87 1.61 12.375 3.125 C11.158125 2.96 9.94125 2.795 8.6875 2.625 C6.91766797 2.4480168 5.14669818 2.28220702 3.375 2.125 C2.06402344 1.98771484 2.06402344 1.98771484 0.7265625 1.84765625 C-10.36139913 1.23826426 -20.80581518 4.65473093 -31.40112305 7.57421875 C-33.625 8.125 -33.625 8.125 -35.625 8.125 C-35.625 7.465 -35.625 6.805 -35.625 6.125 C-31.35692332 3.68609904 -28.52081103 2.89728786 -23.625 3.125 C-23.295 2.795 -22.965 2.465 -22.625 2.125 C-15.13654075 -0.03356675 -7.73327225 -0.12215375 0 0 Z " fill="#00282E" transform="translate(719.625,176.875)"/>
<path d="M0 0 C0 0.33 0 0.66 0 1 C-0.96301025 1.02505615 -1.92602051 1.0501123 -2.91821289 1.07592773 C-6.51712617 1.17064271 -10.115875 1.27070252 -13.71459961 1.37231445 C-15.26729464 1.41542245 -16.82002974 1.45711268 -18.37280273 1.49731445 C-20.61454303 1.5556069 -22.85608604 1.61912578 -25.09765625 1.68359375 C-26.12621483 1.70866249 -26.12621483 1.70866249 -27.17555237 1.73423767 C-31.53043364 1.8658112 -35.70668063 2.31414284 -40 3 C-28.43208442 -4.71194372 -12.86636857 -2.59645636 0 0 Z " fill="#1AD6CF" transform="translate(735,180)"/>
<path d="M0 0 C-4.27502652 2.33892029 -8.09368735 3.60550053 -12.875 4.5 C-16.86598089 5.29149568 -20.57120822 6.08408924 -24.3125 7.6875 C-28.71788168 9.25551721 -32.3841391 9.28849131 -37 9 C-33.69460769 7.16495119 -30.4324947 6.2302077 -26.7734375 5.30859375 C-24.9790625 4.85129883 -24.9790625 4.85129883 -23.1484375 4.38476562 C-21.28058594 3.91586914 -21.28058594 3.91586914 -19.375 3.4375 C-16.90314474 2.81317853 -14.43176419 2.18697354 -11.9609375 1.55859375 C-10.86571777 1.28329834 -9.77049805 1.00800293 -8.64208984 0.72436523 C-2.86500579 -0.85950174 -2.86500579 -0.85950174 0 0 Z " fill="#02373B" transform="translate(532,876)"/>
<path d="M0 0 C-6.70400556 4.46933704 -16.84561732 3.14241271 -24.69921875 3.09765625 C-26.14081108 3.09553383 -26.14081108 3.09553383 -27.61152649 3.09336853 C-30.63688466 3.08783675 -33.66216475 3.07529773 -36.6875 3.0625 C-38.75716038 3.05747616 -40.82682193 3.05291481 -42.89648438 3.04882812 C-47.931019 3.03788981 -52.96549633 3.02067362 -58 3 C-58 2.67 -58 2.34 -58 2 C-56.75500732 1.98018066 -55.51001465 1.96036133 -54.22729492 1.93994141 C-49.56222957 1.86327037 -44.89745143 1.77465306 -40.23266602 1.68261719 C-38.22230747 1.64457946 -36.21188669 1.609685 -34.20141602 1.578125 C-19.99922809 1.51826702 -19.99922809 1.51826702 -6.0168457 -0.68212891 C-3.72733434 -1.0429743 -2.1891831 -0.70487055 0 0 Z " fill="#60011C" transform="translate(754,863)"/>
<path d="M0 0 C1.47906892 -0.02689216 2.95827483 -0.04634621 4.4375 -0.0625 C5.26121094 -0.07410156 6.08492187 -0.08570313 6.93359375 -0.09765625 C9 0 9 0 10 1 C11.41117702 1.12209924 12.82820459 1.17770872 14.24438477 1.20532227 C15.59567223 1.2352401 15.59567223 1.2352401 16.97425842 1.26576233 C17.95341721 1.28247482 18.93257599 1.29918732 19.94140625 1.31640625 C21.43751686 1.3475779 21.43751686 1.3475779 22.96385193 1.37937927 C26.16332843 1.44498637 29.36288982 1.50381134 32.5625 1.5625 C34.72592039 1.60567462 36.88933206 1.64928855 39.05273438 1.69335938 C44.36839874 1.80067903 49.68414834 1.90242427 55 2 C55 2.33 55 2.66 55 3 C48.29226939 3.05085414 41.58458881 3.08579828 34.87670898 3.10986328 C32.59641665 3.11989935 30.31613711 3.13353115 28.03588867 3.15087891 C24.75175816 3.17523233 21.46779833 3.18650728 18.18359375 3.1953125 C17.16978134 3.20563507 16.15596893 3.21595764 15.11143494 3.22659302 C9.6674034 3.22744925 5.14457778 2.81425623 0 1 C0 0.67 0 0.34 0 0 Z " fill="#DF0E53" transform="translate(209,865)"/>
<path d="M0 0 C0.66 0 1.32 0 2 0 C2.2673999 0.84296631 2.5347998 1.68593262 2.81030273 2.55444336 C3.80117482 5.67307381 4.79478385 8.79080401 5.7902832 11.90795898 C6.22107771 13.25884344 6.65076901 14.61008021 7.0793457 15.96166992 C7.69454859 17.90115924 8.31367084 19.83935874 8.93359375 21.77734375 C9.30540771 22.94515381 9.67722168 24.11296387 10.06030273 25.31616211 C10.74276992 27.88733984 10.74276992 27.88733984 12 29 C12.04092937 31.33297433 12.04241723 33.66705225 12 36 C9.22550113 33.22550113 8.70051923 29.99807974 7.6875 26.3125 C5.64193697 19.08608228 3.36488992 11.97874212 0.91796875 4.87890625 C0 2 0 2 0 0 Z " fill="#002B30" transform="translate(791,256)"/>
<path d="M0 0 C3.06052175 4.59078262 4.4412246 9.7291498 6.1875 14.9375 C6.56841797 16.03513672 6.94933594 17.13277344 7.34179688 18.26367188 C7.69693359 19.32005859 8.05207031 20.37644531 8.41796875 21.46484375 C8.74563232 22.430271 9.0732959 23.39569824 9.41088867 24.39038086 C10.01551015 27.06870617 9.92292265 28.45095763 9 31 C5.74303512 24.6996417 3.39113976 18.42725836 1.6875 11.5625 C1.51637695 10.87671875 1.34525391 10.1909375 1.16894531 9.484375 C0.3886767 6.19459381 0 3.40563127 0 0 Z " fill="#1DD9D2" transform="translate(833,389)"/>
<path d="M0 0 C2.87702145 4.31553218 4.07353562 9.0150693 5.625 13.9375 C5.94984375 14.93974609 6.2746875 15.94199219 6.609375 16.97460938 C6.91617188 17.94076172 7.22296875 18.90691406 7.5390625 19.90234375 C7.81959473 20.78398193 8.10012695 21.66562012 8.38916016 22.57397461 C9 25 9 25 9 29 C8.34 29 7.68 29 7 29 C7 27.02 7 25.04 7 23 C6.34 23 5.68 23 5 23 C4.69255859 21.82630859 4.69255859 21.82630859 4.37890625 20.62890625 C4.10949219 19.61699219 3.84007812 18.60507812 3.5625 17.5625 C3.29566406 16.55316406 3.02882813 15.54382813 2.75390625 14.50390625 C2.24021923 12.08247999 2.24021923 12.08247999 1 11 C0.76636119 9.15108054 0.58696365 7.29511969 0.4375 5.4375 C0.35371094 4.42558594 0.26992188 3.41367188 0.18359375 2.37109375 C0.12300781 1.58863281 0.06242188 0.80617187 0 0 Z " fill="#1DD9D2" transform="translate(786,242)"/>
<path d="M0 0 C-10.14896573 4.20661356 -18.99475936 6.37112911 -30 7 C-27.1410171 5.45598563 -24.46105948 4.50214318 -21.3046875 3.74609375 C-20.42425781 3.53146484 -19.54382813 3.31683594 -18.63671875 3.09570312 C-17.26966797 2.76989258 -17.26966797 2.76989258 -15.875 2.4375 C-14.05939219 2.00078648 -12.24426209 1.56208067 -10.4296875 1.12109375 C-9.62772949 0.9295874 -8.82577148 0.73808105 -7.99951172 0.54077148 C-2.84460616 -0.85338185 -2.84460616 -0.85338185 0 0 Z " fill="#012E34" transform="translate(890,779)"/>
<path d="M0 0 C0.33 0 0.66 0 1 0 C1.84371205 3.70605005 2.6731088 7.41516381 3.5 11.125 C3.73847656 12.17171875 3.97695313 13.2184375 4.22265625 14.296875 C4.44824219 15.31523438 4.67382812 16.33359375 4.90625 17.3828125 C5.11572266 18.31496582 5.32519531 19.24711914 5.54101562 20.20751953 C6.03025569 23.18407693 6.07770757 25.98883181 6 29 C5.34 29 4.68 29 4 29 C4 26.03 4 23.06 4 20 C3.34 20 2.68 20 2 20 C0.74158054 13.25846717 -0.26404456 6.86515862 0 0 Z " fill="#E32761" transform="translate(293,744)"/>
<path d="M0 0 C0.66 0.33 1.32 0.66 2 1 C2.55353075 16.74487472 2.55353075 16.74487472 -1 24 C-1.95139197 20.89315935 -2.01111621 18.45494879 -1.66015625 15.234375 C-1.56669922 14.34492187 -1.47324219 13.45546875 -1.37695312 12.5390625 C-1.27318359 11.61867188 -1.16941406 10.69828125 -1.0625 9.75 C-0.96259766 8.81414063 -0.86269531 7.87828125 -0.75976562 6.9140625 C-0.51275436 4.60862401 -0.25928885 2.30408452 0 0 Z " fill="#002126" transform="translate(935,708)"/>
<path d="M0 0 C2.64 0 5.28 0 8 0 C8 0.66 8 1.32 8 2 C5.81426438 2.65177969 3.6263177 3.29614674 1.4375 3.9375 C0.21933594 4.29714844 -0.99882813 4.65679688 -2.25390625 5.02734375 C-5.87201619 5.96676959 -9.29853486 6.54743991 -13 7 C-12.67 6.34 -12.34 5.68 -12 5 C-9.49609375 4.3671875 -9.49609375 4.3671875 -6.4375 3.875 C-4.91962891 3.62363281 -4.91962891 3.62363281 -3.37109375 3.3671875 C-2.58863281 3.24601563 -1.80617188 3.12484375 -1 3 C-0.67 2.01 -0.34 1.02 0 0 Z " fill="#19E3DC" transform="translate(542,868)"/>
<path d="M0 0 C-3.78725827 2.52483885 -7.77696443 3.99856097 -11.9921875 5.68359375 C-15.02266222 6.93288167 -15.02266222 6.93288167 -17.7578125 8.66015625 C-20 10 -20 10 -22 10 C-22 9.34 -22 8.68 -22 8 C-21.34 8 -20.68 8 -20 8 C-20 7.34 -20 6.68 -20 6 C-18.68 6 -17.36 6 -16 6 C-16 5.34 -16 4.68 -16 4 C-14.68 4 -13.36 4 -12 4 C-12 3.34 -12 2.68 -12 2 C-7.8794254 0.00214565 -4.54805635 -0.17835515 0 0 Z " fill="#E21D5B" transform="translate(261,299)"/>
<path d="M0 0 C0 0.66 0 1.32 0 2 C-1.98 2.33 -3.96 2.66 -6 3 C0.93 3.495 0.93 3.495 8 4 C8 4.33 8 4.66 8 5 C1.07 5 -5.86 5 -13 5 C-8.91591468 0.91591468 -5.73412301 0 0 0 Z " fill="#1AE9E0" transform="translate(502,235)"/>
<path d="M0 0 C2.85368392 1.42684196 2.9606425 3.0118472 4 6 C4.37125 6.969375 4.7425 7.93875 5.125 8.9375 C6.78372966 14.7430538 6.14911312 21.02719099 6 27 C5.67 27 5.34 27 5 27 C4.80664062 25.88882813 4.61328125 24.77765625 4.4140625 23.6328125 C3.03384533 15.73584005 1.63909202 7.84835828 0 0 Z " fill="#2AF0E4" transform="translate(621,208)"/>
<path d="M0 0 C2.9156164 3.54039134 5.50127818 7.1626772 8 11 C7.01 11 6.02 11 5 11 C4.67 10.34 4.34 9.68 4 9 C3.01 8.67 2.02 8.34 1 8 C0.67 8.66 0.34 9.32 0 10 C-0.33 9.67 -0.66 9.34 -1 9 C-0.91062197 7.47480724 -0.75462854 5.95318071 -0.5625 4.4375 C-0.46066406 3.61121094 -0.35882813 2.78492188 -0.25390625 1.93359375 C-0.17011719 1.29550781 -0.08632813 0.65742187 0 0 Z " fill="#041B26" transform="translate(325,878)"/>
<path d="M0 0 C2.52469829 3.78704743 3.70459736 7.63891305 5.125 11.9375 C5.40214844 12.74896484 5.67929687 13.56042969 5.96484375 14.39648438 C6.22652344 15.18216797 6.48820313 15.96785156 6.7578125 16.77734375 C6.9964502 17.49140381 7.23508789 18.20546387 7.48095703 18.94116211 C8 21 8 21 8 25 C7.34 25 6.68 25 6 25 C5.81824219 24.23816406 5.63648438 23.47632813 5.44921875 22.69140625 C4.06285978 16.99667018 2.58223411 11.43804929 0.55078125 5.9375 C0 4 0 4 0 0 Z " fill="#21DCD5" transform="translate(853,452)"/>
<path d="M0 0 C2.0140956 3.0211434 2.26836596 3.80660017 2.4140625 7.23046875 C2.45273437 8.03291016 2.49140625 8.83535156 2.53125 9.66210938 C2.5621875 10.49548828 2.593125 11.32886719 2.625 12.1875 C2.66367187 13.03248047 2.70234375 13.87746094 2.7421875 14.74804688 C2.83636279 16.83167524 2.91926675 18.91580753 3 21 C2.01 20.34 1.02 19.68 0 19 C-0.34057617 17.02880859 -0.34057617 17.02880859 -0.29296875 14.6484375 C-0.28330078 13.79765625 -0.27363281 12.946875 -0.26367188 12.0703125 C-0.23853516 11.18085938 -0.21339844 10.29140625 -0.1875 9.375 C-0.17396484 8.4778125 -0.16042969 7.580625 -0.14648438 6.65625 C-0.11106925 4.43690211 -0.06168461 2.21874812 0 0 Z " fill="#EF3973" transform="translate(374,240)"/>
<path d="M0 0 C-7.24441195 3.0819153 -13.76273185 3.37085802 -21.5625 3.1875 C-22.66658203 3.17396484 -23.77066406 3.16042969 -24.90820312 3.14648438 C-27.60599272 3.11144815 -30.30272636 3.06232591 -33 3 C-33 2.67 -33 2.34 -33 2 C-32.3387915 1.97494385 -31.67758301 1.9498877 -30.99633789 1.92407227 C-28.01817695 1.80846898 -25.0403608 1.68558246 -22.0625 1.5625 C-20.50112305 1.50352539 -20.50112305 1.50352539 -18.90820312 1.44335938 C-17.42416992 1.38051758 -17.42416992 1.38051758 -15.91015625 1.31640625 C-14.99371338 1.27974854 -14.07727051 1.24309082 -13.13305664 1.20532227 C-11.0179272 1.22996136 -11.0179272 1.22996136 -10 0 C-3.57142857 -1.19047619 -3.57142857 -1.19047619 0 0 Z " fill="#23E9E0" transform="translate(406,909)"/>
<path d="M0 0 C0 0.66 0 1.32 0 2 C-1.65 2 -3.3 2 -5 2 C-5 2.66 -5 3.32 -5 4 C-11.25948114 6.13391403 -17.42208127 6.58955515 -24 7 C-21.28523485 5.19015657 -19.68908906 4.50635562 -16.62109375 3.7109375 C-15.78255859 3.49179687 -14.94402344 3.27265625 -14.08007812 3.046875 C-13.20802734 2.82515625 -12.33597656 2.6034375 -11.4375 2.375 C-10.56158203 2.14554688 -9.68566406 1.91609375 -8.78320312 1.6796875 C-2.28941127 0 -2.28941127 0 0 0 Z " fill="#DD2E66" transform="translate(715,825)"/>
<path d="M0 0 C1.98 0 3.96 0 6 0 C6 0.66 6 1.32 6 2 C6.99 2 7.98 2 9 2 C9 2.66 9 3.32 9 4 C11.31 4.33 13.62 4.66 16 5 C16 6.32 16 7.64 16 9 C16.66 9 17.32 9 18 9 C17.67 9.66 17.34 10.32 17 11 C16.35933594 10.52949219 15.71867188 10.05898437 15.05859375 9.57421875 C10.17593784 6.0595797 5.64913018 3.08772202 0 1 C0 0.67 0 0.34 0 0 Z " fill="#022731" transform="translate(743,183)"/>
<path d="M0 0 C0.99 0.495 0.99 0.495 2 1 C2.59355614 3.64860427 2.74209269 6.29197322 3 9 C3.66 9 4.32 9 5 9 C5.13277344 9.63808594 5.26554688 10.27617187 5.40234375 10.93359375 C5.57894531 11.75988281 5.75554688 12.58617187 5.9375 13.4375 C6.11152344 14.26121094 6.28554688 15.08492188 6.46484375 15.93359375 C6.80752994 17.97661204 6.80752994 17.97661204 8 19 C8.04080783 20.99958364 8.04254356 23.00045254 8 25 C6.25406542 22.38109813 5.4206896 20.59019243 4.4921875 17.65625 C4.22792969 16.82222656 3.96367188 15.98820312 3.69140625 15.12890625 C3.42199219 14.26136719 3.15257812 13.39382813 2.875 12.5 C2.59785156 11.63246094 2.32070313 10.76492188 2.03515625 9.87109375 C0 3.38465979 0 3.38465979 0 0 Z " fill="#002D31" transform="translate(820,345)"/>
<path d="M0 0 C2.63674321 3.95511481 3.77075145 8.05223931 5.1875 12.5625 C5.47302734 13.43841797 5.75855469 14.31433594 6.05273438 15.21679688 C6.31763672 16.05404297 6.58253906 16.89128906 6.85546875 17.75390625 C7.09934326 18.52033447 7.34321777 19.2867627 7.59448242 20.07641602 C8 22 8 22 7 24 C4.48780099 21.48780099 4.28798663 19.69315898 3.5 16.25 C2.71603397 12.92311876 1.91164154 9.73957508 0.8125 6.5 C0 4 0 4 0 0 Z " fill="#1FD5D0" transform="translate(810,317)"/>
<path d="M0 0 C-3.35846491 2.2389766 -6.58891321 3.12872154 -10.4375 4.125 C-11.44006836 4.39763672 -11.44006836 4.39763672 -12.46289062 4.67578125 C-15.7948763 5.55418382 -18.52536772 6 -22 6 C-22 5.34 -22 4.68 -22 4 C-21.01 3.896875 -20.02 3.79375 -19 3.6875 C-16.11539199 3.29202955 -13.68705713 2.55010959 -11 1.4375 C-7.14234411 -0.11460374 -4.13160552 -0.25822535 0 0 Z " fill="#20E5DD" transform="translate(454,895)"/>
<path d="M0 0 C-2.70928069 2.70928069 -5.01746777 2.84542048 -8.75 3.625 C-10.56757812 4.01558594 -10.56757812 4.01558594 -12.421875 4.4140625 C-15.69856789 4.95063885 -18.68918709 5.11171455 -22 5 C-22 4.67 -22 4.34 -22 4 C-19.08644159 3.13372595 -16.16995672 2.28168994 -13.25 1.4375 C-12.425 1.19064453 -11.6 0.94378906 -10.75 0.68945312 C-9.95078125 0.46064453 -9.1515625 0.23183594 -8.328125 -0.00390625 C-7.5949707 -0.21861572 -6.86181641 -0.4333252 -6.10644531 -0.65454102 C-3.76130184 -1.03914672 -2.24174192 -0.72878764 0 0 Z " fill="#DD2963" transform="translate(639,847)"/>
<path d="M0 0 C-3.20118803 2.13412535 -5.26538682 2.4316893 -9 3 C-9.33 3.33 -9.66 3.66 -10 4 C-12.01594582 4.23427778 -14.038474 4.41336124 -16.0625 4.5625 C-17.16722656 4.64628906 -18.27195312 4.73007812 -19.41015625 4.81640625 C-20.26480469 4.87699219 -21.11945312 4.93757812 -22 5 C-18.644661 2.76310733 -15.40369426 1.83264459 -11.5625 0.8125 C-10.55993164 0.52729492 -10.55993164 0.52729492 -9.53710938 0.23632812 C-6.06186139 -0.69706355 -3.41391321 -1.37080403 0 0 Z " fill="#023A3F" transform="translate(831,795)"/>
<path d="M0 0 C-4.81191488 2.76685105 -8.5862959 3.44945382 -14 4 C-14.33 4.33 -14.66 4.66 -15 5 C-17.33297433 5.04092937 -19.66705225 5.04241723 -22 5 C-18.47893171 3.05460977 -14.8524463 1.94293181 -11 0.8125 C-9.783125 0.44769531 -8.56625 0.08289063 -7.3125 -0.29296875 C-4.27118248 -0.94211789 -2.83488355 -1.11269179 0 0 Z " fill="#02373D" transform="translate(458,896)"/>
<path d="M0 0 C3.37128815 1.5977669 6.47852322 3.4984676 9.625 5.5 C11.06746094 6.41265625 11.06746094 6.41265625 12.5390625 7.34375 C15 9 15 9 17 11 C15.35 11 13.7 11 12 11 C12 10.34 12 9.68 12 9 C11.319375 8.7525 10.63875 8.505 9.9375 8.25 C6.43134917 6.75802092 3.28379632 4.93164489 0 3 C0 2.01 0 1.02 0 0 Z " fill="#370115" transform="translate(185,852)"/>
<path d="M0 0 C0.33 0.99 0.66 1.98 1 3 C1.66 3 2.32 3 3 3 C4.26305335 8.07476794 5.27036084 12.72796354 5 18 C2.4033438 15.4033438 1.89312309 13.06184625 0.8125 9.5625 C0.44769531 8.40878906 0.08289063 7.25507813 -0.29296875 6.06640625 C-1 3 -1 3 0 0 Z " fill="#002C34" transform="translate(864,480)"/>
<path d="M0 0 C1.97862727 3.40024603 2.56066663 6.56330661 3.125 10.4375 C3.29257812 11.54996094 3.46015625 12.66242188 3.6328125 13.80859375 C3.95177944 16.5808915 4.07289361 19.2144227 4 22 C-0.05505062 14.75883818 -0.2643451 8.12126902 0 0 Z " fill="#BCFEFD" transform="translate(623,218)"/>
<path d="M0 0 C-3.08549348 1.66645757 -6.12675325 2.73761596 -9.5 3.6875 C-10.4384375 3.95949219 -11.376875 4.23148438 -12.34375 4.51171875 C-15.00766466 5.00140894 -16.47611372 4.88693174 -19 4 C-18.01 4 -17.02 4 -16 4 C-16 3.34 -16 2.68 -16 2 C-10.54538831 0.61470179 -5.63281599 -0.2396943 0 0 Z " fill="#01282E" transform="translate(498,235)"/>
<path d="M0 0 C-5.78527805 3.10429554 -11.33958217 5.40366169 -18 5 C-17.01 4.67 -16.02 4.34 -15 4 C-15 3.34 -15 2.68 -15 2 C-13.25364835 1.46706165 -11.50272348 0.94909337 -9.75 0.4375 C-8.77546875 0.14746094 -7.8009375 -0.14257812 -6.796875 -0.44140625 C-4.03756068 -0.99249836 -2.6087176 -0.93789609 0 0 Z " fill="#00282E" transform="translate(532,876)"/>
<path d="M0 0 C1.91385532 2.87078299 2.96432952 5.33411656 4.125 8.5625 C4.47820312 9.53316406 4.83140625 10.50382813 5.1953125 11.50390625 C6 14 6 14 6 16 C5.34 16 4.68 16 4 16 C1.18150494 10.45108785 -0.5326514 6.258654 0 0 Z " fill="#410117" transform="translate(165,817)"/>
<path d="M0 0 C1.95979369 2.93969054 2.48320069 4.55022586 3.125 7.9375 C3.29257812 8.79214844 3.46015625 9.64679687 3.6328125 10.52734375 C4 13 4 13 4 17 C3.34 17 2.68 17 2 17 C1.77213542 14.94921875 1.54427083 12.8984375 1.31640625 10.84765625 C1.18113386 8.98859771 1.18113386 8.98859771 0 8 C-0.14115161 5.32941149 -0.04247107 2.67567762 0 0 Z " fill="#E0235D" transform="translate(299,773)"/>
<path d="M0 0 C3.5682233 5.35233495 4.32665309 11.63026469 4 18 C3.67 18 3.34 18 3 18 C2.690625 16.865625 2.38125 15.73125 2.0625 14.5625 C1.37075469 11.21224901 1.37075469 11.21224901 0 10 C-0.07205511 8.31391034 -0.08386068 6.62499341 -0.0625 4.9375 C-0.05347656 4.01839844 -0.04445313 3.09929688 -0.03515625 2.15234375 C-0.02355469 1.44207031 -0.01195312 0.73179687 0 0 Z " fill="#DF205B" transform="translate(261,602)"/>
<path d="M0 0 C0.66 0 1.32 0 2 0 C5.21764451 4.82646677 6.36261136 10.19821824 6 16 C4.08614468 13.12921701 3.03567048 10.66588344 1.875 7.4375 C1.52179687 6.46683594 1.16859375 5.49617188 0.8046875 4.49609375 C0 2 0 2 0 0 Z " fill="#00252C" transform="translate(837,400)"/>
<path d="M0 0 C-4.81815472 2.77043896 -8.5768541 3.45768541 -14 4 C-14.99 4.495 -14.99 4.495 -16 5 C-16.66 4.34 -17.32 3.68 -18 3 C-15.75376301 2.30030318 -13.50283586 1.61564957 -11.25 0.9375 C-9.99703125 0.55464844 -8.7440625 0.17179688 -7.453125 -0.22265625 C-4.3261992 -0.92656828 -2.90533954 -1.16653785 0 0 Z " fill="#013539" transform="translate(436,902)"/>
<path d="M0 0 C-5.97332123 3.4753869 -10.11509775 4.57374185 -17 4 C-13.87708931 2.30533993 -10.79668129 1.25784321 -7.375 0.3125 C-6.41335938 0.04050781 -5.45171875 -0.23148438 -4.4609375 -0.51171875 C-2 -1 -2 -1 0 0 Z " fill="#003339" transform="translate(859,787)"/>
<path d="M0 0 C-5.44535609 3.38495108 -10.67721029 3.67373505 -17 4 C-14.59327602 1.59327602 -12.88621451 1.20867825 -9.625 0.3125 C-8.66851563 0.04050781 -7.71203125 -0.23148438 -6.7265625 -0.51171875 C-4.02935339 -0.9947433 -2.55027856 -0.9004538 0 0 Z " fill="#20D6D0" transform="translate(642,198)"/>
<path d="M0 0 C0 0.66 0 1.32 0 2 C-0.66 2 -1.32 2 -2 2 C-2 2.66 -2 3.32 -2 4 C-3.75 5.6875 -3.75 5.6875 -6 7 C-8.140625 6.58203125 -8.140625 6.58203125 -10 6 C-8.71283353 4.99421411 -7.42011342 3.99553202 -6.125 3 C-5.40570313 2.443125 -4.68640625 1.88625 -3.9453125 1.3125 C-2 0 -2 0 0 0 Z " fill="#CE0C4C" transform="translate(215,253)"/>
<path d="M0 0 C-5.1468192 3.16727335 -9.158256 3.35050464 -15 3 C-5.21459227 -2.08583691 -5.21459227 -2.08583691 0 0 Z " fill="#02393C" transform="translate(495,886)"/>
<path d="M0 0 C-2.62451617 2.62451617 -4.4877828 2.5832868 -8.125 3.125 C-9.22070312 3.29257812 -10.31640625 3.46015625 -11.4453125 3.6328125 C-12.70988281 3.81457031 -12.70988281 3.81457031 -14 4 C-14 3.34 -14 2.68 -14 2 C-9.126739 0.4087311 -5.19209404 -0.21192221 0 0 Z " fill="#1EDDD6" transform="translate(528,875)"/>
<path d="M0 0 C5.4389165 -0.21755666 9.87080814 -0.10428384 15 2 C15 2.33 15 2.66 15 3 C9.47322267 3.19392201 5.24385089 2.7479503 0 1 C0 0.67 0 0.34 0 0 Z " fill="#C30D49" transform="translate(209,865)"/>
<path d="M0 0 C2.55803184 3.83704776 4.34505724 7.75712791 3.625 12.4375 C3.41875 12.953125 3.2125 13.46875 3 14 C0.81005752 10.71508627 0.64722661 9.16904361 0.375 5.3125 C0.30023437 4.31863281 0.22546875 3.32476562 0.1484375 2.30078125 C0.09945312 1.54152344 0.05046875 0.78226562 0 0 Z " fill="#B9FDFC" transform="translate(768,283)"/>
<path d="M0 0 C0 0.33 0 0.66 0 1 C-5.78357065 3.01167675 -10.90218999 3.22084624 -17 3 C-17 2.67 -17 2.34 -17 2 C-11.19233704 0.4943096 -6.0018137 -0.21824777 0 0 Z " fill="#001621" transform="translate(397,912)"/>
<path d="M0 0 C-2.77042109 2.77042109 -4.76533805 2.39796106 -8.625 2.625 C-9.81351563 2.69976563 -11.00203125 2.77453125 -12.2265625 2.8515625 C-13.59941406 2.92503906 -13.59941406 2.92503906 -15 3 C-5.21459227 -2.08583691 -5.21459227 -2.08583691 0 0 Z " fill="#02393D" transform="translate(875,783)"/>
<path d="M0 0 C-3.6441774 2.4294516 -5.71241272 2.16179575 -10 2 C-10.33 2.99 -10.66 3.98 -11 5 C-11 3.68 -11 2.36 -11 1 C-3.57142857 -1.42857143 -3.57142857 -1.42857143 0 0 Z " fill="#122F3B" transform="translate(809,801)"/>
<path d="M0 0 C-0.66 0 -1.32 0 -2 0 C-2 0.66 -2 1.32 -2 2 C-5.375 2.625 -5.375 2.625 -9 3 C-9.66 2.34 -10.32 1.68 -11 1 C-3.57142857 -1.42857143 -3.57142857 -1.42857143 0 0 Z " fill="#012F35" transform="translate(842,792)"/>
<path d="M0 0 C-2 2 -2 2 -4.3828125 2.1953125 C-5.28773438 2.17210937 -6.19265625 2.14890625 -7.125 2.125 C-8.49011719 2.09792969 -8.49011719 2.09792969 -9.8828125 2.0703125 C-10.58148438 2.04710937 -11.28015625 2.02390625 -12 2 C-7.66032699 -0.21504143 -4.80574417 -1.54470348 0 0 Z " fill="#02333A" transform="translate(418,907)"/>
<path d="M0 0 C1 3 1 3 0 6 C-0.66 6 -1.32 6 -2 6 C-2.33 6.99 -2.66 7.98 -3 9 C-3.99 8.67 -4.98 8.34 -6 8 C-4.02 5.36 -2.04 2.72 0 0 Z " fill="#012C32" transform="translate(925,749)"/>
<path d="M0 0 C2.40034102 3.60051153 4.32187705 6.96144535 3.625 11.375 C3.41875 11.91125 3.2125 12.4475 3 13 C0.89172945 9.83759418 0.66182535 8.49342531 0.375 4.8125 C0.30023437 3.91144531 0.22546875 3.01039063 0.1484375 2.08203125 C0.09945312 1.39496094 0.05046875 0.70789063 0 0 Z " fill="#BDF5F4" transform="translate(618,201)"/>
<path d="M0 0 C2.97 0.495 2.97 0.495 6 1 C6.33 2.98 6.66 4.96 7 7 C5.83040013 6.02433888 4.66438823 5.044375 3.5 4.0625 C2.8503125 3.51722656 2.200625 2.97195312 1.53125 2.41015625 C1.0259375 1.94480469 0.520625 1.47945312 0 1 C0 0.67 0 0.34 0 0 Z " fill="#023036" transform="translate(761,194)"/>
<path d="M0 0 C1.12894876 0.93274109 2.25300876 1.87140122 3.375 2.8125 C4.00148438 3.33457031 4.62796875 3.85664062 5.2734375 4.39453125 C7 6 7 6 9 9 C6.66471585 8.82701599 5.30822418 8.29774631 3.62109375 6.66796875 C0 2.42788462 0 2.42788462 0 0 Z " fill="#02343E" transform="translate(334,890)"/>
<path d="M0 0 C0.33 0 0.66 0 1 0 C1 2.64 1 5.28 1 8 C-0.98 8.99 -0.98 8.99 -3 10 C-2.01 6.7 -1.02 3.4 0 0 Z " fill="#3C0116" transform="translate(796,816)"/>
<path d="M0 0 C-1.4117783 0.53394179 -2.82970244 1.05165104 -4.25 1.5625 C-5.03890625 1.85253906 -5.8278125 2.14257812 -6.640625 2.44140625 C-9.19103452 3.04522837 -10.55322229 2.8473932 -13 2 C-8.78313245 -0.81124504 -4.85593084 -1.61864361 0 0 Z " fill="#1DCAC3" transform="translate(406,909)"/>
<path d="M0 0 C1.32 0 2.64 0 4 0 C4.99 2.97 5.98 5.94 7 9 C4.04070881 6.24479785 1.96318174 3.53372712 0 0 Z " fill="#01212B" transform="translate(768,201)"/>
<path d="M0 0 C-3.08888522 2.05925681 -3.70935927 2.2390374 -7.1875 2.125 C-9.0746875 2.063125 -9.0746875 2.063125 -11 2 C-6.98764085 -0.6749061 -4.6342454 -1.48957888 0 0 Z " fill="#440219" transform="translate(754,863)"/>
<path d="M0 0 C0.99 0.66 1.98 1.32 3 2 C1.02 3.32 -0.96 4.64 -3 6 C-3.66 5.67 -4.32 5.34 -5 5 C-3.35 3.35 -1.7 1.7 0 0 Z " fill="#40031D" transform="translate(780,844)"/>
<path d="M0 0 C0 0.66 0 1.32 0 2 C-2.64 2.66 -5.28 3.32 -8 4 C-8 3.34 -8 2.68 -8 2 C-3.61016949 -1.20338983 -3.61016949 -1.20338983 0 0 Z " fill="#001C23" transform="translate(692,181)"/>
</svg>
